/* XPM */
static const char * slicecontext_xpm[] = {
"32 32 4 1",
" 	c None",
".	c #000000",
"+	c #0071A7",
"@	c #00A700",
"            ......              ",
"           +++..@@@             ",
"           +++..@@@             ",
"          ++++..@@@@            ",
"         +++++..@@@@            ",
"        ++++++..@@@@            ",
"        ++++++..@@@@            ",
"        ++ +++..@@@@            ",
"           +++..@@@@            ",
"           +++..@@@             ",
"          ++++..@@@             ",
"         +++++..@@@             ",
"         +++++..@@              ",
"         +++++..@@              ",
"         +++++..@@              ",
"         +++++..@@              ",
"          ++++..@@@             ",
"          ++++..@@@@            ",
"          ++++..@@@@            ",
"         +++++..@@@@@           ",
"        ++++++..@@@@@           ",
"       +++++++..@@@@@           ",
"       +++++++..@@@@@           ",
"       +++++++..@@@@            ",
"           +++..@@@@            ",
"           +++..@@@@            ",
"           +++..@@@             ",
"          ++++..@@@             ",
"          ++++..@@@             ",
"         +++++..@@@@            ",
"         +++++..@@@@@           ",
"         +++++..@@@@@           "};
