/* XPM */
static const char * WMWriteGeometry_xpm[] = {
"32 32 128 2",
"  	c None",
". 	c #000000",
"+ 	c #FFFFFF",
"@ 	c #FEFDFE",
"# 	c #FDFBFD",
"$ 	c #FDF9FC",
"% 	c #FCF6FC",
"& 	c #FBF5FA",
"* 	c #FAF2F9",
"= 	c #CDCDCD",
"- 	c #CECECE",
"; 	c #FEFBFD",
"> 	c #FDF9FD",
", 	c #FAF3FA",
"' 	c #F8F8F8",
") 	c #F9F9F9",
"! 	c #D1D1D1",
"~ 	c #FFFDFF",
"{ 	c #FBF7FB",
"] 	c #FBF4FB",
"^ 	c #FBF3FA",
"/ 	c #F9F0F9",
"( 	c #F9EFF8",
"_ 	c #F8ECF7",
": 	c #F7EAF6",
"< 	c #F6E8F6",
"[ 	c #F6E6F4",
"} 	c #F5E3F3",
"| 	c #F4E1F3",
"1 	c #F3E0F2",
"2 	c #F2DDF1",
"3 	c #F2DBF0",
"4 	c #F0D9EF",
"5 	c #F0D7EE",
"6 	c #EFD5ED",
"7 	c #EED3ED",
"8 	c #EED1EC",
"9 	c #D2D2D2",
"0 	c #FCF8FD",
"a 	c #F5E3F4",
"b 	c #F4E1F2",
"c 	c #F3DFF1",
"d 	c #F2DBF1",
"e 	c #EFD7EE",
"f 	c #EFD5EE",
"g 	c #FEFEFE",
"h 	c #F3DFF2",
"i 	c #F1DBF0",
"j 	c #F0D8EF",
"k 	c #EED2ED",
"l 	c #EDD1EB",
"m 	c #FEFDFF",
"n 	c #FAF2FA",
"o 	c #FAF0F9",
"p 	c #F8EEF8",
"q 	c #F7ECF7",
"r 	c #F7EAF7",
"s 	c #F6E8F5",
"t 	c #F3E1F3",
"u 	c #F1D9EF",
"v 	c #F0D6EF",
"w 	c #EFD3EC",
"x 	c #EDD0EB",
"y 	c #636363",
"z 	c #FFFDFE",
"A 	c #FAF1F9",
"B 	c #F6E6F5",
"C 	c #F4E3F4",
"D 	c #F0D6EE",
"E 	c #EED2EC",
"F 	c #EED0EC",
"G 	c #D9D9D9",
"H 	c #646464",
"I 	c #FCF7FB",
"J 	c #F9F0F8",
"K 	c #F7E9F6",
"L 	c #F7E8F5",
"M 	c #F5E5F4",
"N 	c #F4E4F3",
"O 	c #F4E2F3",
"P 	c #616161",
"Q 	c #6B6B6B",
"R 	c #9A9A9A",
"S 	c #8B8B8B",
"T 	c #6C6C6C",
"U 	c #FCF6FB",
"V 	c #5A5A5A",
"W 	c #5C5C5C",
"X 	c #626262",
"Y 	c #FBF5FB",
"Z 	c #F3DDF1",
"` 	c #5D5D5D",
" .	c #5E5E5E",
"..	c #FDF8FC",
"+.	c #686868",
"@.	c #858585",
"#.	c #7C7C7C",
"$.	c #F1D8EF",
"%.	c #F0D7EF",
"&.	c #EFD4ED",
"*.	c #EED0EB",
"=.	c #D7D7D7",
"-.	c #F8EEF7",
";.	c #F4E2F2",
">.	c #EFD7EF",
",.	c #EFD4EE",
"'.	c #F9EEF8",
").	c #F3E2F3",
"!.	c #EFD6EE",
"~.	c #EED3EC",
"{.	c #EED4ED",
"].	c #FEFCFE",
"^.	c #EFD6EF",
"/.	c #EDD0EC",
"(.	c #FEFBFE",
"_.	c #F6E7F5",
":.	c #F5E6F4",
"<.	c #F4E3F3",
"[.	c #F5E5F5",
"}.	c #FDFAFD",
"|.	c #FDF8FD",
"1.	c #F8EBF7",
"2.	c #F1DAF0",
"3.	c #FFFFFE",
"4.	c #FDFAFE",
"5.	c #FCF9FC",
"6.	c #FCF7FC",
"7.	c #FBF4FA",
". .       . . .       . .                                       ",
". .       . . .       . .                                       ",
". .       . . .       . .                                       ",
"  . .     . . .     . .                                         ",
"  . .   . .   . .   . .                                         ",
"  . .   . .   . .   . .                                         ",
"  . . . .       . . . .                                         ",
"    . . .       . . .                                           ",
"    . . .       . . .                                           ",
"    . . .       . . .                                           ",
"                                                                ",
"+ @ # $ % & * = = = = = = = = = = = = = = = = = -               ",
"+ @ ; > % & , ' ' ' ' ' ' ' ' ' ' ' ' ' ' ' ) ' !               ",
"+ ~ # > { ] ^ / ( _ : < [ } | 1 2 3 4 5 6 7 8 + 9               ",
"+ @ # 0 % . . . . . . . . a b c 2 d 4 e f 7 8 g 9               ",
"+ @ # . . . . . . . . . . . | h 2 i j 5 6 k l g 9               ",
"+ m . . . . n o p q r s . . t 1 2 i u v f w x g 9     y y       ",
"+ z . . . ] n A p _ : < B C t h 2 3 u D 6 E F + G     H H y     ",
"+ . . . I ] , J p _ K L M N O h 2 H H H H P Q R S T P H y H H   ",
"+ . . . U ] n o . . . . . . | h 2 3 H H H H y V W X H H H H y H ",
"+ . . 0 % Y n / . . . . . . O h Z 3 H H H H y `  .y H H H H H H ",
"+ . . ..U Y , J p . : . . . | c 2 y H H y X +.@.#.+.X H H H H   ",
"+ . . . U Y n J p _ : . . . O h 2 i $.%.&.E *.+ =.    H H y     ",
"+ . . . I & n o -.q : . . . ;.c Z i u >.,.k x g 9     H H       ",
"+ @ . . . ] n o '._ : . . . ).h 2 i $.!.&.~.x g 9               ",
"+ @ . . . . n / -._ K . . . b h 2 i j %.{.~.x g 9               ",
"+ ].# . . . . . . . . . . a | c 2 i u ^.&.E /.g 9               ",
"+ @ (.0 % . . . . . . _.:.<.| c 2 3 u 5 ,.~.x g 9               ",
"+ ].# $ I & n J p _ : _.[.C ;.h 2 i u D ,.~.x g 9               ",
"+ @ }.|.U & * / p 1.: _.:.} b h 2 2.4 D &.7 /.+ 9               ",
"3.@ 4.5.U Y n ' ' ' ' ' ' ' ' ' ' ' ' ' ' ' ) ' !               ",
"+ @ # 0 6.7.n = = = = = = = = = = = = = = = = = -               "};
