/* XPM */
static const char * clusterSlicer_xpm[] = {
"32 32 235 2",
"  	c None",
". 	c #000000",
"+ 	c #EB0A02",
"@ 	c #EC1903",
"# 	c #EC2806",
"$ 	c #F21402",
"% 	c #F91E01",
"& 	c #FC3001",
"* 	c #F94806",
"= 	c #E96C1A",
"- 	c #F62102",
"; 	c #FE2B00",
"> 	c #FF3D00",
", 	c #FE5202",
"' 	c #F86D0B",
") 	c #FB800D",
"! 	c #F53105",
"~ 	c #FC3F02",
"{ 	c #FF5100",
"] 	c #FF6500",
"^ 	c #FF7700",
"/ 	c #FF8B04",
"( 	c #FF9B01",
"_ 	c #F85907",
": 	c #FF6301",
"< 	c #FF8B00",
"[ 	c #FF9E00",
"} 	c #FFAE00",
"| 	c #FEC001",
"1 	c #EACC12",
"2 	c #F67415",
"3 	c #FC7909",
"4 	c #FF8800",
"5 	c #FF9D00",
"6 	c #FFB000",
"7 	c #FFC200",
"8 	c #FFD400",
"9 	c #FCE503",
"0 	c #EDF00F",
"a 	c #FE8A09",
"b 	c #FF9800",
"c 	c #FFC300",
"d 	c #FFD600",
"e 	c #FFEB00",
"f 	c #FFF700",
"g 	c #D3DE27",
"h 	c #B9CB3B",
"i 	c #FFA601",
"j 	c #FFBE00",
"k 	c #FFD300",
"l 	c #FFE900",
"m 	c #FEF901",
"n 	c #E5E51B",
"o 	c #D4D52B",
"p 	c #B7C141",
"q 	c #A8B34F",
"r 	c #F5BE0D",
"s 	c #FFCB00",
"t 	c #FFE300",
"u 	c #FFFA00",
"v 	c #DEE020",
"w 	c #CCCC33",
"x 	c #C0BF41",
"y 	c #B1B14E",
"z 	c #A0A55A",
"A 	c #959C63",
"B 	c #E7D816",
"C 	c #E2E31D",
"D 	c #CBCC33",
"E 	c #B8B847",
"F 	c #A8A857",
"G 	c #9B9A65",
"H 	c #8F9070",
"I 	c #878975",
"J 	c #828578",
"K 	c #C2D832",
"L 	c #E5E719",
"M 	c #D5D42B",
"N 	c #BCBB43",
"O 	c #A6A659",
"P 	c #93946C",
"Q 	c #84847B",
"R 	c #787788",
"S 	c #72728C",
"T 	c #70728C",
"U 	c #BFD831",
"V 	c #CCD42D",
"W 	c #C4C43A",
"X 	c #AFAE51",
"Y 	c #979669",
"Z 	c #80817F",
"` 	c #6E6F91",
" .	c #60609F",
"..	c #5858A7",
"+.	c #62639D",
"@.	c #6B6A95",
"#.	c #B2C241",
"$.	c #AFB54B",
"%.	c #A2A25D",
"&.	c #8A8A76",
"*.	c #71718E",
"=.	c #5B5DA3",
"-.	c #494AB6",
";.	c #3F3FC0",
">.	c #4B4AB5",
",.	c #605FA1",
"'.	c #6D6D93",
").	c #9EA858",
"!.	c #939868",
"~.	c #808080",
"{.	c #66669A",
"].	c #4D4DB2",
"^.	c #2625DA",
"/.	c #2726D9",
"(.	c #3736C8",
"_.	c #4E4EB1",
":.	c #686997",
"<.	c #797C83",
"[.	c #898E71",
"}.	c #7B7C83",
"|.	c #2929D6",
"1.	c #1414EB",
"2.	c #1313EC",
"3.	c #4546B9",
"4.	c #62629D",
"5.	c #7A7D83",
"6.	c #8A9170",
"7.	c #767887",
"8.	c #4747B9",
"9.	c #2B2BD4",
"0.	c #1717E8",
"a.	c #1616E8",
"b.	c #4647B8",
"c.	c #61619E",
"d.	c #7D7E82",
"e.	c #91966B",
"f.	c #9DA95B",
"g.	c #666699",
"h.	c #5251AF",
"i.	c #3A3AC5",
"j.	c #2A2BD3",
"k.	c #393AC5",
"l.	c #5050AF",
"m.	c #686896",
"n.	c #83827D",
"o.	c #9B9D64",
"p.	c #A9B252",
"q.	c #AFC346",
"r.	c #5E5EA1",
"s.	c #4F50AF",
"t.	c #4445BA",
"u.	c #75758A",
"v.	c #8D8C73",
"w.	c #A8A659",
"x.	c #BBBE43",
"y.	c #62649C",
"z.	c #5F609F",
"A.	c #5F5EA0",
"B.	c #666599",
"C.	c #74748B",
"D.	c #85867A",
"E.	c #9A9A65",
"F.	c #DFE121",
"G.	c #DEF31D",
"H.	c #C0E43F",
"I.	c #71738C",
"J.	c #7E7E81",
"K.	c #8A8975",
"L.	c #979866",
"M.	c #ABAA55",
"N.	c #D7D728",
"O.	c #F0F011",
"P.	c #F6F708",
"Q.	c #E5E31D",
"R.	c #848976",
"S.	c #8F946C",
"T.	c #9F9F60",
"U.	c #AEAD51",
"V.	c #D0D12F",
"W.	c #E5E71A",
"X.	c #F9F607",
"Y.	c #FFEF00",
"Z.	c #FED704",
"`.	c #9AA55D",
" +	c #ADB350",
".+	c #D3D32E",
"++	c #E4E51C",
"@+	c #F3F20B",
"#+	c #FDF002",
"$+	c #FFDF00",
"%+	c #FFC800",
"&+	c #FFB301",
"*+	c #C9D432",
"=+	c #E9EB16",
"-+	c #F8F607",
";+	c #FCF202",
">+	c #FFE500",
",+	c #FFCF00",
"'+	c #FFBA00",
")+	c #FFA301",
"!+	c #FB9005",
"~+	c #BDDE39",
"{+	c #E5F117",
"]+	c #FBF004",
"^+	c #FFAA00",
"/+	c #FF9400",
"(+	c #F88205",
"_+	c #E7760F",
":+	c #F3E410",
"<+	c #FFD102",
"[+	c #FFBD00",
"}+	c #FFAC00",
"|+	c #FF9900",
"1+	c #FF8400",
"2+	c #FC6F02",
"3+	c #F16207",
"4+	c #FCBF0A",
"5+	c #FE9902",
"6+	c #FF8600",
"7+	c #FF7200",
"8+	c #FF5D00",
"9+	c #EC3C03",
"0+	c #FF9A05",
"a+	c #F98808",
"b+	c #FC7603",
"c+	c #FF6100",
"d+	c #FC3900",
"e+	c #F12B01",
"f+	c #DE7111",
"g+	c #FE3C00",
"h+	c #FA2701",
"i+	c #F41800",
"j+	c #F13501",
"k+	c #EA2201",
"l+	c #E81000",
"                                    .                   .       ",
"    + @ #                         .                   .         ",
"    $ % & * =                   .                   .           ",
"    - ; > , ' )               .                   .             ",
"    ! ~ { ] ^ / (           .                   .               ",
"      _ : ^ < [ } | 1     .                   .                 ",
"      2 3 4 5 6 7 8 9 0 .                   .                   ",
"        a b } c d e f . g h               .                     ",
"          i j k l m . n o p q           .                       ",
"          r s t u . v w x y z A       .                         ",
"            B f . C D E F G H I J   .                         . ",
"            K . L M N O P Q R S T .                         .   ",
"            . U V W X Y Z `  .... +.@.                    .     ",
"          .     #.$.%.&.*.=.-.. ;.>.,.'.                .       ",
"        .         ).!.~.{.].. ^./.(._.:.<.            .         ",
"      .             [.}. .. |.1.2.|.3.4.5.6.        .           ",
"    .                 7.. 8.9.0.a.9.b.c.d.e.f.    .             ",
"  .                   . g.h.i.9.j.k.l.m.n.o.p.q..               ",
".                   .     r.s.t.t._. .u.v.w.x..                 ",
"                  .         y.z.A.B.C.D.E.y . F.G.H.            ",
"                .             I.7.J.K.L.M.. N.O.P.Q.            ",
"              .                 R.S.T.U.. V.W.X.Y.Z.            ",
"            .                     `. +. .+++@+#+$+%+&+          ",
"          .                         . *+=+-+;+>+,+'+)+!+      . ",
"        .                         .   ~+{+]+t k j ^+/+(+_+  .   ",
"      .                         .         :+<+[+}+|+1+2+3+.     ",
"    .                         .             4+}+5+6+7+8+. 9+    ",
"                            .                 0+a+b+c+. d+e+    ",
"                          .                       f+. g+h+i+    ",
"                        .                         .   j+k+l+    ",
"                      .                         .               ",
"                                              .                 "};
