/* XPM */
static const char * WMReadLAS_xpm[] = {
"32 32 312 2",
"  	c None",
". 	c #FCAF60",
"+ 	c #F8A859",
"@ 	c #F6A555",
"# 	c #F5A351",
"$ 	c #F4A14E",
"% 	c #F29F4C",
"& 	c #F19E4B",
"* 	c #F09C48",
"= 	c #F09C47",
"- 	c #EF9A46",
"; 	c #EE9945",
"> 	c #EE9843",
", 	c #ED9742",
"' 	c #ED9741",
") 	c #ED9640",
"! 	c #EC9640",
"~ 	c #EB953F",
"{ 	c #EC953F",
"] 	c #EC953E",
"^ 	c #EB953E",
"/ 	c #EB953D",
"( 	c #EA943D",
"_ 	c #EB943D",
": 	c #EB933D",
"< 	c #EA923C",
"[ 	c #E8923C",
"} 	c #E7913C",
"| 	c #F8A959",
"1 	c #0000FF",
"2 	c #F3A14F",
"3 	c #F3A04D",
"4 	c #F19E4A",
"5 	c #F09C49",
"6 	c #F09B47",
"7 	c #EF9A44",
"8 	c #ED9843",
"9 	c #EC9741",
"0 	c #EC9641",
"a 	c #EC963F",
"b 	c #EA943E",
"c 	c #EA933D",
"d 	c #E5903C",
"e 	c #F29F4D",
"f 	c #F29E4B",
"g 	c #0604F8",
"h 	c #2417E0",
"i 	c #7B4D99",
"j 	c #E8923F",
"k 	c #EB943E",
"l 	c #E9933D",
"m 	c #E8923D",
"n 	c #E5913B",
"o 	c #E38F3B",
"p 	c #F39F4C",
"q 	c #F29E4A",
"r 	c #F19D49",
"s 	c #EE9944",
"t 	c #E29045",
"u 	c #B77369",
"v 	c #2E1DD8",
"w 	c #7D4E97",
"x 	c #E7923C",
"y 	c #E28F3B",
"z 	c #E08D3A",
"A 	c #F4A14F",
"B 	c #EF9C47",
"C 	c #EF9944",
"D 	c #ED9944",
"E 	c #BE7861",
"F 	c #2316E0",
"G 	c #E8933D",
"H 	c #E08D3B",
"I 	c #DD8B3A",
"J 	c #F09D49",
"K 	c #EF9C48",
"L 	c #EF9B46",
"M 	c #E18F44",
"N 	c #0805F7",
"O 	c #E5913C",
"P 	c #DE8C3A",
"Q 	c #DB8A39",
"R 	c #EF9B48",
"S 	c #EF9945",
"T 	c #ED9842",
"U 	c #BD7861",
"V 	c #0C08F3",
"W 	c #DC8A48",
"X 	c #D98847",
"Y 	c #0D08F2",
"Z 	c #E08E3B",
"` 	c #DB8939",
" .	c #D78738",
"..	c #ED9943",
"+.	c #E18E44",
"@.	c #B77466",
"#.	c #2F1ED6",
"$.	c #7C4E96",
"%.	c #462BC4",
"&.	c #6741A8",
"*.	c #DB8947",
"=.	c #6640A8",
"-.	c #462CC2",
";.	c #E18E3A",
">.	c #D38437",
",.	c #EE9A45",
"'.	c #EE9844",
").	c #0503F9",
"!.	c #2417DF",
"~.	c #7A4D98",
"{.	c #E7923E",
"].	c #D08351",
"^.	c #482DC2",
"/.	c #0F09F1",
"(.	c #472DC1",
"_.	c #CA7F4E",
":.	c #E18D3B",
"<.	c #D38536",
"[.	c #CF8236",
"}.	c #EC9540",
"|.	c #EB943F",
"1.	c #E8933C",
"2.	c #DE8C39",
"3.	c #DA8A39",
"4.	c #CE8336",
"5.	c #C87E34",
"6.	c #EE9842",
"7.	c #ED9641",
"8.	c #EA943C",
"9.	c #E18E3B",
"0.	c #D38537",
"a.	c #BD7831",
"b.	c #EA933C",
"c.	c #E9923D",
"d.	c #E48F3B",
"e.	c #DF8C39",
"f.	c #D38637",
"g.	c #C87F34",
"h.	c #BE7831",
"i.	c #B06F2E",
"j.	c #E9923C",
"k.	c #E7913D",
"l.	c #E48F3C",
"m.	c #DB8B39",
"n.	c #D78838",
"o.	c #D48537",
"p.	c #C97F34",
"q.	c #BE7832",
"r.	c #B16F2E",
"s.	c #A0652A",
"t.	c #EB9640",
"u.	c #EC943E",
"v.	c #E9943D",
"w.	c #D88838",
"x.	c #D48637",
"y.	c #A1652A",
"z.	c #8D5925",
"A.	c #EC9740",
"B.	c #E9933C",
"C.	c #E5903B",
"D.	c #E4903C",
"E.	c #CF8336",
"F.	c #C97F35",
"G.	c #BF7832",
"H.	c #B1702E",
"I.	c #A1662A",
"J.	c #74491E",
"K.	c #DC8A39",
"L.	c #D88839",
"M.	c #D08336",
"N.	c #CA8035",
"O.	c #B2702E",
"P.	c #A2662A",
"Q.	c #8E5A25",
"R.	c #754A1F",
"S.	c #513315",
"T.	c #E6913C",
"U.	c #DF8C3A",
"V.	c #CA7F35",
"W.	c #C07932",
"X.	c #B2702F",
"Y.	c #A3672A",
"Z.	c #8F5A26",
"`.	c #764A1E",
" +	c #523415",
".+	c #000000",
"++	c #EB963F",
"@+	c #E8913C",
"#+	c #DF8D3A",
"$+	c #CA8034",
"%+	c #B3702E",
"&+	c #A3672B",
"*+	c #905A25",
"=+	c #774B1F",
"-+	c #543516",
";+	c #E7923D",
">+	c #E6903B",
",+	c #E4903B",
"'+	c #E28F3A",
")+	c #DC8A3A",
"!+	c #CB8034",
"~+	c #B3712E",
"{+	c #915B26",
"]+	c #784C1F",
"^+	c #553516",
"/+	c #EA953E",
"(+	c #DC8B39",
"_+	c #D98838",
":+	c #CB8035",
"<+	c #C17A32",
"[+	c #B4712F",
"}+	c #A4672A",
"|+	c #563717",
"1+	c #E6913B",
"2+	c #E28E3B",
"3+	c #CC8035",
"4+	c #B4722F",
"5+	c #A5682B",
"6+	c #925C26",
"7+	c #7A4D1F",
"8+	c #573717",
"9+	c #0A0703",
"0+	c #DC8B3A",
"a+	c #D58637",
"b+	c #D18336",
"c+	c #593817",
"d+	c #120C05",
"e+	c #E28E3A",
"f+	c #D98839",
"g+	c #D58638",
"h+	c #D08436",
"i+	c #C27A32",
"j+	c #B5722F",
"k+	c #A5692B",
"l+	c #935D26",
"m+	c #7B4E20",
"n+	c #5A3817",
"o+	c #180F06",
"p+	c #E08C3A",
"q+	c #CC8135",
"r+	c #A6682B",
"s+	c #7C4E20",
"t+	c #5B3918",
"u+	c #1C1208",
"v+	c #D98939",
"w+	c #D18436",
"x+	c #B6722F",
"y+	c #A6692C",
"z+	c #945D27",
"A+	c #7D4F20",
"B+	c #5D3A18",
"C+	c #201508",
"D+	c #E38E3B",
"E+	c #D98938",
"F+	c #D68637",
"G+	c #CD8035",
"H+	c #C37B33",
"I+	c #B6732F",
"J+	c #A7692C",
"K+	c #955D27",
"L+	c #7D4F21",
"M+	c #5D3C19",
"N+	c #241709",
"O+	c #E7913B",
"P+	c #DD8B39",
"Q+	c #D58737",
"R+	c #CD8135",
"S+	c #A86A2C",
"T+	c #955E27",
"U+	c #7E4F21",
"V+	c #5F3C19",
"W+	c #27190A",
"X+	c #B7732F",
"Y+	c #A86A2B",
"Z+	c #965F27",
"`+	c #7F5021",
" @	c #603C19",
".@	c #2A1B0B",
"+@	c #E6923C",
"@@	c #D68738",
"#@	c #D28437",
"$@	c #B87430",
"%@	c #A96B2C",
"&@	c #805121",
"*@	c #613D1A",
"=@	c #2D1C0C",
"-@	c #D28436",
";@	c #C47B33",
">@	c #B8742F",
",@	c #A96A2C",
"'@	c #986027",
")@	c #815122",
"!@	c #623E19",
"~@	c #2F1D0D",
"{@	c #D68638",
"]@	c #C57C33",
"^@	c #AA6A2C",
"/@	c #815222",
"(@	c #633F1A",
"_@	c #311F0D",
":@	c #E38F3A",
"<@	c #DD8C39",
"[@	c #DA8939",
"}@	c #D28536",
"|@	c #CD8136",
"1@	c #C47C33",
"2@	c #B97430",
"3@	c #AA6B2C",
"4@	c #986028",
"5@	c #825222",
"6@	c #64401A",
"7@	c #34200E",
". + @ # $ % & * = - ; > , ' ' ) ! ~ { ] ^ / / ( _ _ ( : : < [ } ",
"| 1 1 2 3 4 5 6 - 7 > 8 ' 9 0 a ~ ] ^ ^ b ( _ ( ( _ c c 1 1 } d ",
"@ 1 2 e f 1 1 1 1 1 8 , 1 1 g h i j ^ k 1 _ ( ( : 1 ( l m 1 n o ",
"# 1 p q r 1 - ; s , , ' 1 a t u v w / k 1 k _ ( _ 1 l [ x 1 y z ",
"A 1 4 r B 1 C D , ' ' 0 1 ~ ] ] E F _ _ 1 ( _ : ( 1 G } n 1 H I ",
"3 1 J K L 1 1 1 1 1 ! ! 1 { ^ k M N _ _ 1 ( _ ( c 1 } O o 1 P Q ",
"& 1 R - S 1 T , 9 0 ! { 1 ~ ^ _ U F _ ( V W ( l X Y n o Z 1 `  .",
"5 1 L ; ..1 ' ' 0 ! ~ { 1 k +.@.#.$._ c %.&.*.X =.-.o ;.P 1  .>.",
"* 1 ,.'.T 1 1 1 1 1 ~ ^ 1 1 ).!.~.{.( : ].^././.(._.:.P Q 1 <.[.",
"L 1 1 8 , 9 ! }.a ~ |.^ / / _ b _ _ : c c 1.x O o z 2.3.1 1 4.5.",
"S s 6.' 7.) ! a { ^ k k _ k _ ( _ : ( 8.1.x n o 9.P Q  .0.[.5.a.",
"> 6., 9 0 ! { { ^ k _ ( k _ c ( _ b.l c.x O d.:.e.Q  .f.[.g.h.i.",
"6., ' ' ! a a ] ^ _ k k b ( _ ( c l j.k.n l.;.P m.n.o.[.p.q.r.s.",
"T ' ! a t.] u.k ^ k _ ( _ _ ( : v.[ x n o 9.P Q w.x.[.p.q.r.y.z.",
"' A.! { { ^ ^ k k k ( _ ( c ( c B.x C.D.;.P Q n.o.E.F.G.H.I.z.J.",
"9 }.{ a ^ ] _ _ k ( _ : _ ( c l [ O o ;.P K.L.f.M.N.G.O.P.Q.R.S.",
"}.{ { ^ k k k _ _ ( _ ( _ l 1.x T.D.;.U.K.w.x.M.V.W.X.Y.Z.`. +.+",
"a ++] { ^ _ _ _ ( _ _ ( B.c.@+d o y #+K.w.o.M.$+W.%+&+*+=+-+.+.+",
"~ ~ ^ k ( _ _ _ ( _ ( ( j.;+>+,+'+U.)+w.x.M.!+W.~+Y.{+]+^+.+.+.+",
"^ ^ ^ /+_ k _ _ _ ( b.B.;+T.,+;.#+(+_+o.M.:+<+[+}+{+]+|+.+.+.+.+",
"k ^ _ _ _ _ ( _ ( v.l [ 1+,+2+U.(+L.o.M.3+<+4+5+6+7+8+9+.+.+.+.+",
"^ _ _ k _ ( ( c l l [ T.,+2+U.0+w.a+b+:+<+4+5+6+7+c+d+.+.+.+.+.+",
"k ( k _ _ ( : ( B.m } ,+e+#+(+f+g+h+3+i+j+k+l+m+n+o+.+.+.+.+.+.+",
"_ _ _ _ _ ( b.l m T.d.;.p+(+_+a+b+q+i+j+r+l+s+t+u+.+.+.+.+.+.+.+",
"k _ ( _ ( c l m T.,+2+z 0+v+g+w+3+i+x+y+z+A+B+C+.+.+.+.+.+.+.+.+",
"_ c c ( c l x } D.D+z 0+E+F+b+G+H+I+J+K+L+M+N+.+.+.+.+.+.+.+.+.+",
": _ ( c B.[ O+l.y z P+_+Q+w+R+H+I+S+T+U+V+W+.+.+.+.+.+.+.+.+.+.+",
"c _ c l [ T.C.y H P+f+g+w+q+H+X+Y+Z+`+ @.@.+.+.+.+.+.+.+.+.+.+.+",
"( b.B.1.+@C.o z 0+_+@@#@R+H+$@%@Z+&@*@=@.+.+.+.+.+.+.+.+.+.+.+.+",
"( b.m } C.e+z 0+E+@@-@R+;@>@,@'@)@!@~@.+.+.+.+.+.+.+.+.+.+.+.+.+",
"l [ } ,+y z P+v+{@-@R+]@$@^@'@/@(@_@.+.+.+.+.+.+.+.+.+.+.+.+.+.+",
"[ x d :@z <@[@@@}@|@1@2@3@4@5@6@7@.+.+.+.+.+.+.+.+.+.+.+.+.+.+.+"};
