/* XPM */
static const char * WMReadLAS_xpm[] = {
"32 32 406 2",
"  	c #FFFFFF",
". 	c #DAD9D9",
"+ 	c #B29F9E",
"@ 	c #B8A1A0",
"# 	c #B9A1A0",
"$ 	c #B5A3A2",
"% 	c #D4D1D1",
"& 	c #FAFCFC",
"* 	c #C2AAA8",
"= 	c #A79797",
"- 	c #FEFEFE",
"; 	c #DEDDDD",
"> 	c #B49896",
", 	c #AA7572",
"' 	c #AC6D6A",
") 	c #B08885",
"! 	c #CAC3C3",
"~ 	c #FCFCFC",
"{ 	c #E1E0E0",
"] 	c #B69594",
"^ 	c #D86159",
"/ 	c #F5564B",
"( 	c #DE5A51",
"_ 	c #B39897",
": 	c #DBD9DA",
"< 	c #E0E2E2",
"[ 	c #D5706A",
"} 	c #BA5E58",
"| 	c #F2F4F5",
"1 	c #D6CDCC",
"2 	c #C0625D",
"3 	c #B77975",
"4 	c #C6CBCC",
"5 	c #BFB9B9",
"6 	c #CE6A64",
"7 	c #BB7B77",
"8 	c #F9F7F7",
"9 	c #ECF4F5",
"0 	c #CE817D",
"a 	c #F3594E",
"b 	c #B16661",
"c 	c #FDFEFE",
"d 	c #D6BFBD",
"e 	c #D95B52",
"f 	c #E6584E",
"g 	c #BEBBBB",
"h 	c #F7F6F6",
"i 	c #BF7F7C",
"j 	c #CD534B",
"k 	c #E0D7D6",
"l 	c #D2C3C3",
"m 	c #A26F6C",
"n 	c #F9F5F5",
"o 	c #E8EEEE",
"p 	c #D0817C",
"q 	c #B06661",
"r 	c #F7F7F7",
"s 	c #AE8F8D",
"t 	c #D65B52",
"u 	c #F4594F",
"v 	c #AC7D7B",
"w 	c #F6F0F0",
"x 	c #BF5B54",
"y 	c #D8574E",
"z 	c #D2C8C8",
"A 	c #ECEEEF",
"B 	c #B7A7A6",
"C 	c #F9F8F7",
"D 	c #D3817C",
"E 	c #F4594E",
"F 	c #EEE6E6",
"G 	c #BB655F",
"H 	c #B27470",
"I 	c #EB5B52",
"J 	c #D3625B",
"K 	c #D7E2E3",
"L 	c #BD5C55",
"M 	c #F2594F",
"N 	c #C7706A",
"O 	c #BFC2C3",
"P 	c #F4F6F6",
"Q 	c #BAB1B1",
"R 	c #BCADAD",
"S 	c #E65F56",
"T 	c #EC5D53",
"U 	c #BAABAA",
"V 	c #BA8885",
"W 	c #ED584D",
"X 	c #EC5B51",
"Y 	c #DE645C",
"Z 	c #AE8986",
"` 	c #D8DFDF",
" .	c #FEFFFF",
"..	c #CEBCBB",
"+.	c #D6E1E2",
"@.	c #DA6962",
"#.	c #ED5C52",
"$.	c #C2817C",
"%.	c #F4F9FA",
"&.	c #DCDBDC",
"*.	c #BB716C",
"=.	c #EF5B51",
"-.	c #ED5B51",
";.	c #C16660",
">.	c #D1C9C9",
",.	c #CFD0D1",
"'.	c #BEB8B7",
").	c #D5CDCD",
"!.	c #BA706C",
"~.	c #F05B51",
"{.	c #DD6B63",
"].	c #D3D7D7",
"^.	c #DFE5E6",
"/.	c #AE8987",
"(.	c #DC655D",
"_.	c #EB5B51",
":.	c #F5594F",
"<.	c #B7605B",
"[.	c #EAE6E6",
"}.	c #F9FAFA",
"|.	c #AC8B8A",
"1.	c #D4655E",
"2.	c #C8706B",
"3.	c #C66E69",
"4.	c #CA6F69",
"5.	c #EC5B52",
"6.	c #E05C53",
"7.	c #CCAEAD",
"8.	c #F5F5F5",
"9.	c #ECECEC",
"0.	c #C4C5C5",
"a.	c #C37570",
"b.	c #EA5A50",
"c.	c #EE544A",
"d.	c #BDAEAD",
"e.	c #D3817B",
"f.	c #BBABAA",
"g.	c #EAEBEB",
"h.	c #E2EAEB",
"i.	c #C3635D",
"j.	c #AFAFB0",
"k.	c #DAE2E3",
"l.	c #D8DFE0",
"m.	c #C5D4D5",
"n.	c #C95F59",
"o.	c #EE594F",
"p.	c #CA8783",
"q.	c #EEF1F2",
"r.	c #D1CDCD",
"s.	c #B59897",
"t.	c #FAFDFD",
"u.	c #DAD7D7",
"v.	c #CA6862",
"w.	c #F75549",
"x.	c #B89D9C",
"y.	c #EBF0F1",
"z.	c #CF837E",
"A.	c #AE6762",
"B.	c #CCD0D1",
"C.	c #AC6460",
"D.	c #E2E7E7",
"E.	c #BBAAAA",
"F.	c #BB635E",
"G.	c #EDF3F4",
"H.	c #AF8684",
"I.	c #F6574C",
"J.	c #C8625C",
"K.	c #E4DCDC",
"L.	c #D9D0CF",
"M.	c #B46661",
"N.	c #DDDAD9",
"O.	c #F3F3F3",
"P.	c #C97D78",
"Q.	c #E55147",
"R.	c #C6BABA",
"S.	c #FAFAFA",
"T.	c #D3D7D8",
"U.	c #CC736E",
"V.	c #F6594E",
"W.	c #C8625B",
"X.	c #C8D4D5",
"Y.	c #E4E8E9",
"Z.	c #C8CECF",
"`.	c #C2756F",
" +	c #B56F6B",
".+	c #FDFFFF",
"++	c #D4DBDC",
"@+	c #CE736E",
"#+	c #AE6E6A",
"$+	c #EDF4F4",
"%+	c #AAA6A6",
"&+	c #F1564C",
"*+	c #EB584E",
"=+	c #B6918F",
"-+	c #ECEEEE",
";+	c #F1EAEA",
">+	c #BC5851",
",+	c #BD817D",
"'+	c #E5EAEA",
")+	c #DDD8D8",
"!+	c #C86059",
"~+	c #B66E6A",
"{+	c #F1EFEF",
"]+	c #ACA6A6",
"^+	c #A16A67",
"/+	c #BF655F",
"(+	c #C3645E",
"_+	c #C1645E",
":+	c #B36A66",
"<+	c #A46F6B",
"[+	c #B46A65",
"}+	c #C2635C",
"|+	c #AA9391",
"1+	c #DCDADA",
"2+	c #9A6764",
"3+	c #C0655F",
"4+	c #BD6560",
"5+	c #9D7C7B",
"6+	c #E3E5E6",
"7+	c #B8B8B9",
"8+	c #AB6965",
"9+	c #C4645D",
"0+	c #BD6660",
"a+	c #8C6E6D",
"b+	c #EDEDEE",
"c+	c #AD8785",
"d+	c #CB5F58",
"e+	c #C06964",
"f+	c #AF7B78",
"g+	c #AD6A66",
"h+	c #AF817E",
"i+	c #E2E0DF",
"j+	c #B0B0B0",
"k+	c #F8F8FB",
"l+	c #F0F0F4",
"m+	c #F0F1F3",
"n+	c #EDEDEC",
"o+	c #E8E5E4",
"p+	c #EAE6E3",
"q+	c #E5DADC",
"r+	c #E2D3D5",
"s+	c #E1D8DE",
"t+	c #CAB3C2",
"u+	c #F3F1F2",
"v+	c #E9E8EB",
"w+	c #9D90A7",
"x+	c #CBC5CF",
"y+	c #FBFBFB",
"z+	c #9D9DB0",
"A+	c #777799",
"B+	c #E6E6E8",
"C+	c #F0F0ED",
"D+	c #BEBD6D",
"E+	c #B8B99D",
"F+	c #B7B19B",
"G+	c #CAB256",
"H+	c #D5D5D4",
"I+	c #EEF0F4",
"J+	c #C99E62",
"K+	c #CC9D5C",
"L+	c #EDECEA",
"M+	c #E6E0DD",
"N+	c #DA8B5E",
"O+	c #D1865C",
"P+	c #EFE9E6",
"Q+	c #EDE2E3",
"R+	c #D1626F",
"S+	c #D55F6C",
"T+	c #DDC7CA",
"U+	c #F7F4F6",
"V+	c #C06A9F",
"W+	c #D065A7",
"X+	c #C794B4",
"Y+	c #A087B0",
"Z+	c #9067AC",
"`+	c #8965A2",
" @	c #EDEBEE",
".@	c #C6C6D6",
"+@	c #6565AB",
"@@	c #6565AE",
"#@	c #7D7DA6",
"$@	c #D1D0A4",
"%@	c #E3E156",
"&@	c #DEDD60",
"*@	c #D3D3CD",
"=@	c #D7BB51",
"-@	c #E3C556",
";@	c #C5B269",
">@	c #D9C9B6",
",@	c #E1A857",
"'@	c #E3A754",
")@	c #C6AF90",
"!@	c #DABAA9",
"~@	c #E08856",
"{@	c #E28754",
"]@	c #CDAC9A",
"^@	c #D1A5AB",
"/@	c #DD5C6A",
"(@	c #DD5D6C",
"_@	c #CC868D",
":@	c #D3C0CD",
"<@	c #D061A5",
"[@	c #D165A8",
"}@	c #C0639D",
"|@	c #EAEAEA",
"1@	c #8861A3",
"2@	c #9167AD",
"3@	c #8F64AC",
"4@	c #B7ABC0",
"5@	c #9596BA",
"6@	c #6565AD",
"7@	c #6666AE",
"8@	c #CFCE7A",
"9@	c #E2E058",
"0@	c #DEDC5C",
"a@	c #CBC596",
"b@	c #E0C254",
"c@	c #DFC258",
"d@	c #E0C35A",
"e@	c #C8AE8A",
"f@	c #E0A757",
"g@	c #E2A857",
"h@	c #C69D63",
"i@	c #D6A68E",
"j@	c #E18857",
"k@	c #E18856",
"l@	c #CD9676",
"m@	c #CE8590",
"n@	c #DD5D6B",
"o@	c #DD5E6C",
"p@	c #CA6972",
"q@	c #CBA0BD",
"r@	c #D163A7",
"s@	c #D161A6",
"t@	c #B4B3B7",
"u@	c #8E63AC",
"v@	c #9068AC",
"w@	c #9066AC",
"x@	c #A28BB0",
"y@	c #7D7FAF",
"z@	c #CECD7A",
"A@	c #C69C63",
"B@	c #CE9676",
"C@	c #CD858F",
"D@	c #CA6872",
"E@	c #A189AE",
"F@	c #D1D1A3",
"G@	c #DEDC60",
"H@	c #D2D2CB",
"I@	c #D9BC51",
"J@	c #C6B268",
"K@	c #C6AF8F",
"L@	c #DBBAA9",
"M@	c #CDAD9A",
"N@	c #D2A5AB",
"O@	c #CC858D",
"P@	c #D3BFCC",
"Q@	c #CF61A5",
"R@	c #C1629D",
"S@	c #E9EAEA",
"T@	c #8861A2",
"U@	c #B6AABF",
"V@	c #9495BA",
"W@	c #6565AC",
"X@	c #F0F0EC",
"Y@	c #BFBD6C",
"Z@	c #B6B599",
"`@	c #B9B299",
" #	c #CDB455",
".#	c #D5D5D3",
"+#	c #EEEFF3",
"@#	c #CB9F61",
"##	c #CC9C5A",
"$#	c #E5DFDB",
"%#	c #DA8A5E",
"&#	c #D1855B",
"*#	c #EBE5E3",
"=#	c #ECE0E2",
"-#	c #D1616E",
";#	c #D65E6B",
">#	c #DBC4C8",
",#	c #F8F3F6",
"'#	c #C169A0",
")#	c #C593B2",
"!#	c #9D84AE",
"~#	c #8A65A3",
"{#	c #ECEAED",
"]#	c #C5C5D5",
"^#	c #7D7DA7",
"/#	c #EFF0F3",
"(#	c #F0F1F2",
"_#	c #EDECEB",
":#	c #E8E5E3",
"<#	c #EAE5E2",
"[#	c #E4D9DA",
"}#	c #DDCED0",
"|#	c #FBFCFC",
"1#	c #E0D6DC",
"2#	c #CAB2C1",
"3#	c #F2F0F2",
"4#	c #E7E5E8",
"5#	c #A698B0",
"6#	c #CAC5CF",
"7#	c #A1A1B6",
"8#	c #8282A4",
"9#	c #E5E5E8",
"                                                                ",
"                                                                ",
"                                                                ",
"                                                                ",
". + @ # # $ %                 & * =             - ; > , ' ) ! ~ ",
"{ ] ^ / ( _ :                 < [ } |         - 1 2 3 4 5 6 7 8 ",
"  9 0 a b     -             c d e f g   -     h i j k     l m n ",
"  o p a q   -               r s t u v         w x y z     A B C ",
"  o D E q                   F G H I J K       w L M N O     P - ",
"  o D E q               -   Q G R S T U   -   r V W X Y Z `     ",
"  o D E q                  .G ..+.@.#.$.%.      &.*.I =.-.;.>.c ",
"  o D E q       -     -   ,.G '.).!.~.{.].  -     ^./.(._.:.<.[.",
"  o D E q     -   }.      |.1.2.3.4.5.6.7. .  8.9.    0.a.b.c.d.",
"  o e.E q         f.g.  h.i.j.k.l.m.n.o.p.q.  r.s.t.    u.v.w.x.",
"  y.z.a A.      B.C.D.  E.F.G.      H.I.J.K.  L.M.N.    O.P.Q.R.",
"S.T.U.V.W.X.Y.Z.`. +.+++@+#+$+     .%+&+*+=+-+;+>+,+'+  )+!+~+{+",
"]+^+/+(+_+:+<+[+}+|+1+2+3+4+5+6+  7+8+9+(+0+a+b+c+d+e+f+g+h+i+- ",
"                                                                ",
"j+j+j+j+j+j+j+j+j+j+j+j+j+j+j+j+j+j+j+j+j+j+j+j+j+j+j+j+j+j+j+j+",
"                                                                ",
"  k+  -  .l+    m+n+    o+p+- c q+r+~ - s+t+u+- v+w+x+- y+z+A+B+",
"C+D+E+  F+G+H+I+J+K+L+M+N+O+P+Q+R+S+T+U+V+W+X+- Y+Z+`+ @.@+@@@#@",
"$@%@&@*@=@-@;@>@,@'@)@!@~@{@]@^@/@(@_@:@<@[@}@|@1@2@3@4@5@6@7@+@",
"8@9@0@a@b@c@d@e@f@g@h@i@j@k@l@m@n@o@p@q@r@[@s@t@u@v@w@x@y@6@7@7@",
"z@9@0@a@b@c@d@e@f@g@A@i@j@k@B@C@n@o@D@q@r@[@s@t@u@v@w@E@y@6@7@7@",
"F@%@G@H@I@-@J@>@,@'@K@L@~@{@M@N@/@(@O@P@Q@[@R@S@T@2@3@U@V@6@7@W@",
"X@Y@Z@  `@ #.#+#@###L+$#%#&#*#=#-#;#>#,#'#W+)#- !#Z+~#{#]#+@@@^#",
"  k+  -  ./#    (#_#   .:#<#- c [#}#|#- 1#2#3#- 4#5#6#- S.7#8#9#",
"                                                                ",
"                                                                ",
"                                                                ",
"                                                                "};
