/* XPM */
static const char * WIsoLines_xpm[] = {
"32 32 90 1",
" 	c None",
".	c #FFFFFF",
"+	c #FEFEFE",
"@	c #FDFDFD",
"#	c #FAFAFA",
"$	c #F8F8F8",
"%	c #AAAAAA",
"&	c #A1A1A1",
"*	c #B3B3B3",
"=	c #BCBCBC",
"-	c #B7B7B7",
";	c #F7F7F7",
">	c #F6F6F6",
",	c #BDBDBD",
"'	c #D6D6D6",
")	c #D2D2D2",
"!	c #FBFBFB",
"~	c #C7C7C7",
"{	c #C3C3C3",
"]	c #ABABAB",
"^	c #F5F5F5",
"/	c #DFDFDF",
"(	c #E8E8E8",
"_	c #E2E2E2",
":	c #9D9D9D",
"<	c #A3A3A3",
"[	c #9E9E9E",
"}	c #CBCBCB",
"|	c #C5C5C5",
"1	c #B0B0B0",
"2	c #DEDEDE",
"3	c #F1F1F1",
"4	c #F9F9F9",
"5	c #EEEEEE",
"6	c #F0F0F0",
"7	c #B9B9B9",
"8	c #C0C0C0",
"9	c #A5A5A5",
"0	c #E0E0E0",
"a	c #BFBFBF",
"b	c #F4F4F4",
"c	c #A6A6A6",
"d	c #FCFCFC",
"e	c #9A9A9A",
"f	c #E3E3E3",
"g	c #ECECEC",
"h	c #A7A7A7",
"i	c #C8C8C8",
"j	c #D0D0D0",
"k	c #A8A8A8",
"l	c #D4D4D4",
"m	c #E1E1E1",
"n	c #B6B6B6",
"o	c #D5D5D5",
"p	c #B4B4B4",
"q	c #DADADA",
"r	c #C1C1C1",
"s	c #AEAEAE",
"t	c #C4C4C4",
"u	c #A9A9A9",
"v	c #CFCFCF",
"w	c #D1D1D1",
"x	c #B5B5B5",
"y	c #BBBBBB",
"z	c #E7E7E7",
"A	c #DBDBDB",
"B	c #D8D8D8",
"C	c #ACACAC",
"D	c #ADADAD",
"E	c #EDEDED",
"F	c #EFEFEF",
"G	c #CCCCCC",
"H	c #D3D3D3",
"I	c #A4A4A4",
"J	c #BEBEBE",
"K	c #C9C9C9",
"L	c #C6C6C6",
"M	c #BABABA",
"N	c #C2C2C2",
"O	c #B2B2B2",
"P	c #F2F2F2",
"Q	c #EBEBEB",
"R	c #949494",
"S	c #E4E4E4",
"T	c #D9D9D9",
"U	c #DCDCDC",
"V	c #F3F3F3",
"W	c #A2A2A2",
"X	c #D7D7D7",
"Y	c #CECECE",
"................................",
"................................",
"................................",
"................................",
"................................",
"...................+............",
"...........+.@#$%&*@+++.........",
"..........+.=-;>..@$%...........",
".......+..,';.+....+.)#.........",
"......+!~{............]@+.......",
"......#%.+.........#...{.+......",
"....+^,.+.+.;/(._:<=['..}.......",
".....|.++.1234^5$....67.^8......",
"....9.++.,!...........0$+;a.....",
"..+.b++;].+......+.....,.+/.....",
"...-@..c..+#;;..+d&ef..-d.g0....",
"...h.+i.+..j$>k+.l..j...m+.n....",
"...a..o....-|pq..ri$s...t..-....",
"...u..v...+.;.....6w.+.+x..y....",
"...z/.A_.+...........+.bB.v;....",
"...+.CDE<++..........+F}Gc.+....",
"....+.@6HI=JKLMkNOPQpsRQ;.+.....",
".......+..S'TrKU3V{WXf..........",
"...............PHYE.............",
"................................",
"................................",
"................................",
"................................",
"................................",
"................................",
"................................",
"................................"};
