/* XPM */
static const char * atlas_xpm[] = {
"22 22 240 2",
"  	c None",
". 	c #5A7AA4",
"+ 	c #5979A3",
"@ 	c #5E7DA6",
"# 	c #91A7C4",
"$ 	c #B6C7D9",
"% 	c #CBD8E6",
"& 	c #D2DDEA",
"* 	c #C7D5E3",
"= 	c #AFC1D6",
"- 	c #8CA3C2",
"; 	c #5877A1",
"> 	c #8AA2C0",
", 	c #D0DBE8",
"' 	c #D1D5D9",
") 	c #FCFCFC",
"! 	c #B2B6BA",
"~ 	c #BAD1E9",
"{ 	c #AAC5E0",
"] 	c #B3C8DE",
"^ 	c #BDCFE1",
"/ 	c #829CBC",
"( 	c #5976A1",
"_ 	c #99AEC8",
": 	c #D1DAE4",
"< 	c #C1CDD8",
"[ 	c #BCC6D1",
"} 	c #C5CBD1",
"| 	c #B1BCC7",
"1 	c #CADAEB",
"2 	c #BDCFE3",
"3 	c #B9CDE2",
"4 	c #DBDEE0",
"5 	c #CBD0D5",
"6 	c #C6D2DF",
"7 	c #8CA5C3",
"8 	c #5876A0",
"9 	c #89A1C0",
"0 	c #DDE4EC",
"a 	c #C9D2DB",
"b 	c #FEFEFE",
"c 	c #C6CFD8",
"d 	c #E2F0FE",
"e 	c #DDECFB",
"f 	c #D5E5F7",
"g 	c #C1D1E0",
"h 	c #BEC6D0",
"i 	c #C2C8CF",
"j 	c #F1F2F3",
"k 	c #F1F1F1",
"l 	c #C8D4E1",
"m 	c #7F9ABB",
"n 	c #FCFCFD",
"o 	c #B8BDC2",
"p 	c #D7E3F0",
"q 	c #E2F1FF",
"r 	c #E3F1FF",
"s 	c #D9EAFA",
"t 	c #CFE1F4",
"u 	c #E6E8E9",
"v 	c #F7F7F7",
"w 	c #F9F9F9",
"x 	c #E5E5E6",
"y 	c #B2C6DB",
"z 	c #5D7DA6",
"A 	c #55709C",
"B 	c #8EA6C3",
"C 	c #EFF3F7",
"D 	c #AEB7BF",
"E 	c #E0EFFF",
"F 	c #E1F0FF",
"G 	c #DBEBFC",
"H 	c #C7CED5",
"I 	c #AAB3BC",
"J 	c #ACBBCC",
"K 	c #ACB6C0",
"L 	c #EAEBEC",
"M 	c #E9E9E9",
"N 	c #CED6DD",
"O 	c #829DBD",
"P 	c #5B78A1",
"Q 	c #B1C2D7",
"R 	c #E7E9EB",
"S 	c #AEB4BB",
"T 	c #CFE4FA",
"U 	c #DFEFFF",
"V 	c #D8E9FB",
"W 	c #CBD2DB",
"X 	c #E8E9EB",
"Y 	c #C0C8D1",
"Z 	c #B3C0CD",
"` 	c #EAEAEA",
" .	c #D2D4D5",
"..	c #9BB2CD",
"+.	c #5D7CA4",
"@.	c #C5D2E2",
"#.	c #A1BFDF",
"$.	c #B1CAE3",
"%.	c #C4DDF7",
"&.	c #D7EAFE",
"*.	c #DEEEFF",
"=.	c #DEEFFF",
"-.	c #DBECFD",
";.	c #CEDBEB",
">.	c #FFFFFF",
",.	c #E2E4E6",
"'.	c #C0C5CA",
").	c #A4AAB1",
"!.	c #AAC0D7",
"~.	c #CAD8E6",
"{.	c #AFBCC9",
"].	c #ABC9E9",
"^.	c #B8D3F0",
"/.	c #C1DBF5",
"(.	c #CCE2F9",
"_.	c #D2E5F9",
":.	c #CDE2F6",
"<.	c #C4CDD7",
"[.	c #F5F5F5",
"}.	c #A4AEB8",
"|.	c #BCBDBF",
"1.	c #AFC4DA",
"2.	c #5B7AA4",
"3.	c #BECFE1",
"4.	c #A2B2C2",
"5.	c #B0BFCF",
"6.	c #C7CDD4",
"7.	c #ABBFD4",
"8.	c #B5D1EE",
"9.	c #B4D0EE",
"0.	c #B1CDEB",
"a.	c #AABFD6",
"b.	c #FBFBFC",
"c.	c #EDEDED",
"d.	c #C9CBCD",
"e.	c #768697",
"f.	c #A7BDD5",
"g.	c #5978A3",
"h.	c #5875A0",
"i.	c #A8BCD3",
"j.	c #8AAED5",
"k.	c #DADEE2",
"l.	c #EDEEEF",
"m.	c #9FB7CF",
"n.	c #A2C2E4",
"o.	c #9EBFE2",
"p.	c #97B9DE",
"q.	c #8BA3BE",
"r.	c #829EBC",
"s.	c #C5CCD3",
"t.	c #F3F3F3",
"u.	c #E3E3E3",
"v.	c #CECECF",
"w.	c #527196",
"x.	c #96AFCB",
"y.	c #526C98",
"z.	c #87A0BF",
"A.	c #96B5D5",
"B.	c #AAB6C4",
"C.	c #8DB1D8",
"D.	c #87ACD5",
"E.	c #7EA6D0",
"F.	c #749DCB",
"G.	c #96A8BB",
"H.	c #E6E6E6",
"I.	c #D7D7D7",
"J.	c #8C949E",
"K.	c #6D8EB6",
"L.	c #7D99BB",
"M.	c #B6C8DD",
"N.	c #BAC1CA",
"O.	c #A6B0BB",
"P.	c #7CA3CF",
"Q.	c #769FCC",
"R.	c #6F99C8",
"S.	c #6592C3",
"T.	c #7A96B5",
"U.	c #CACACA",
"V.	c #828A96",
"W.	c #A4BBD5",
"X.	c #5C7CA5",
"Y.	c #536E9A",
"Z.	c #7F99BB",
"`.	c #9EB8D5",
" +	c #C9CDD1",
".+	c #EEEEEE",
"++	c #8597AB",
"@+	c #6A96C5",
"#+	c #5F8CBF",
"$+	c #5686BA",
"%+	c #708CA9",
"&+	c #C7C7C7",
"*+	c #B8B9B9",
"=+	c #8EA5C0",
"-+	c #7794B7",
";+	c #5978A2",
">+	c #57739E",
",+	c #88A2C1",
"'+	c #AEBED0",
")+	c #D8D9DA",
"!+	c #929CA7",
"~+	c #5A87BA",
"{+	c #5887BB",
"]+	c #5484B9",
"^+	c #4E7FB6",
"/+	c #4779B2",
"(+	c #4574A9",
"_+	c #B4B5B6",
":+	c #9FAFC0",
"<+	c #809BBD",
"[+	c #547199",
"}+	c #56729C",
"|+	c #7C97B9",
"1+	c #ABC1D8",
"2+	c #7794B4",
"3+	c #5181B6",
"4+	c #4376B0",
"5+	c #4072AB",
"6+	c #4774A8",
"7+	c #6789B2",
"8+	c #A2B9D3",
"9+	c #7694B7",
"0+	c #516D95",
"a+	c #496086",
"b+	c #5D7CA6",
"c+	c #7F9ABC",
"d+	c #97AFCC",
"e+	c #A5BCD5",
"f+	c #AAC0D9",
"g+	c #A3BAD5",
"h+	c #93ADCA",
"i+	c #7C98BA",
"j+	c #425979",
"k+	c #1F2738",
"l+	c #42577B",
"m+	c #516C95",
"n+	c #5977A1",
"o+	c #506B93",
"p+	c #3F5273",
"q+	c #171F2A",
"                                            ",
"              . . + + + . .                 ",
"          + @ # $ % & * = - @ .             ",
"        ; > , % ' ) ! ~ { ] ^ / +           ",
"      ( _ : < [ } | 1 2 3 4 5 6 7 +         ",
"    8 9 0 a b c d e f g h i j k l m .       ",
"    @ % n b o p q r s t u v b w x y z       ",
"  A B C b D E F F F G H I J K L M N O .     ",
"  P Q R S T U U E E V W b X Y Z `  ....     ",
"  +.@.#.$.%.&.*.=.-.;.>.b b b ,.'.).!.+     ",
"  . ~.{.].^./.(._.:.<.b b b b [.}.|.1.+     ",
"  2.3.4.5.6.7.8.9.0.a.b.b b b c.d.e.f.g.    ",
"  h.i.j.k.b l.m.n.o.p.q.r.s.t.u.v.w.x.+     ",
"  y.z.A.b b b n B.C.D.E.F.G.H.I.J.K.L..     ",
"    z M.N.) b b O.P.Q.R.S.T.I.U.V.W.X.      ",
"    Y.Z.`. +.+k ++@+S.#+$+%+&+*+=+-+;+      ",
"      >+,+'+)+!+~+{+]+^+/+(+_+:+<+[+        ",
"        }+|+1+2+3+/+4+5+6+7+8+9+0+          ",
"          a+b+c+d+e+f+g+h+i+X.j+            ",
"            k+l+m+n++ 8 o+p+q+              ",
"                                            ",
"                                            "};
