/* XPM */
static const char * clusterParamDisplay_xpm[] = {
"32 32 244 2",
"  	c None",
". 	c #AA7E00",
"+ 	c #F8BA00",
"@ 	c #FFB700",
"# 	c #FFAF00",
"$ 	c #FFA900",
"% 	c #FFB400",
"& 	c #FFB600",
"* 	c #FFB900",
"= 	c #FFC800",
"- 	c #FFA100",
"; 	c #FF9A00",
"> 	c #FF9300",
", 	c #FF8E00",
"' 	c #FF8C00",
") 	c #FF8A00",
"! 	c #FF8B00",
"~ 	c #FFA500",
"{ 	c #FFB000",
"] 	c #FFBB00",
"^ 	c #FFA800",
"/ 	c #FF7D00",
"( 	c #FF7800",
"_ 	c #FF7400",
": 	c #FF7300",
"< 	c #FF7600",
"[ 	c #FF7A00",
"} 	c #FF8100",
"| 	c #FF8700",
"1 	c #FF9000",
"2 	c #FFAA00",
"3 	c #FFC000",
"4 	c #FFD400",
"5 	c #FF6900",
"6 	c #FF5E00",
"7 	c #FF5D00",
"8 	c #FF6000",
"9 	c #FF6500",
"0 	c #FF6B00",
"a 	c #FF7200",
"b 	c #FF7C00",
"c 	c #FF9200",
"d 	c #FF9F00",
"e 	c #FFAC00",
"f 	c #FFBD00",
"g 	c #AB8400",
"h 	c #FF5200",
"i 	c #FF4700",
"j 	c #FF4900",
"k 	c #FF4F00",
"l 	c #FF5500",
"m 	c #FF6800",
"n 	c #FF7F00",
"o 	c #FF8D00",
"p 	c #FF9B00",
"q 	c #FFBA00",
"r 	c #C99E00",
"s 	c #FF4100",
"t 	c #FF3E00",
"u 	c #FF4000",
"v 	c #FF4A00",
"w 	c #FF5400",
"x 	c #FF6100",
"y 	c #FF6E00",
"z 	c #FF7B00",
"A 	c #FFAB00",
"B 	c #FFBC00",
"C 	c #E7B900",
"D 	c #FF3B00",
"E 	c #FF4E00",
"F 	c #FF9C00",
"G 	c #FFAE00",
"H 	c #FFBF00",
"I 	c #F7CA00",
"J 	c #B49400",
"K 	c #FF3800",
"L 	c #FF3C00",
"M 	c #FF4C00",
"N 	c #FF5C00",
"O 	c #FF6C00",
"P 	c #FF7E00",
"Q 	c #FF8F00",
"R 	c #FFB300",
"S 	c #FFC600",
"T 	c #FAD400",
"U 	c #FF3F00",
"V 	c #FF7000",
"W 	c #FF8200",
"X 	c #FF9500",
"Y 	c #FFCF00",
"Z 	c #ECCE00",
"` 	c #FF4200",
" .	c #FF5100",
"..	c #FF6400",
"+.	c #FF7700",
"@.	c #FF9D00",
"#.	c #FFB100",
"$.	c #FFC500",
"%.	c #FFD900",
"&.	c #B19300",
"*.	c #FF4600",
"=.	c #FF5900",
"-.	c #FF8000",
";.	c #FF9400",
">.	c #FFD100",
",.	c #DDC000",
"'.	c #FF4400",
").	c #FF6200",
"!.	c #FFB500",
"~.	c #FFC900",
"{.	c #FFDE00",
"].	c #FF4500",
"^.	c #FF5A00",
"/.	c #FF6F00",
"(.	c #FF8400",
"_.	c #FF9900",
":.	c #FFC300",
"<.	c #FFD800",
"[.	c #B29300",
"}.	c #FF5300",
"|.	c #FFBE00",
"1.	c #BC9E00",
"2.	c #FF4D00",
"3.	c #FF6300",
"4.	c #FFA400",
"5.	c #BA9B00",
"6.	c #FF2500",
"7.	c #FF3300",
"8.	c #FF5F00",
"9.	c #FF7500",
"0.	c #FFCC00",
"a.	c #B99900",
"b.	c #FF1D00",
"c.	c #FF3100",
"d.	c #FF8900",
"e.	c #FF9E00",
"f.	c #FFCA00",
"g.	c #AA8800",
"h.	c #FF0800",
"i.	c #FF1800",
"j.	c #FF2E00",
"k.	c #FF5B00",
"l.	c #FF7100",
"m.	c #F20000",
"n.	c #FF0200",
"o.	c #FF2F00",
"p.	c #F6C200",
"q.	c #DB0000",
"r.	c #ED0000",
"s.	c #FF0400",
"t.	c #FF1B00",
"u.	c #FF3000",
"v.	c #CC9F00",
"w.	c #C70000",
"x.	c #F10000",
"y.	c #FF1E00",
"z.	c #FF3400",
"A.	c #A57E00",
"B.	c #690000",
"C.	c #7C0000",
"D.	c #910000",
"E.	c #A20000",
"F.	c #B70000",
"G.	c #CC0000",
"H.	c #E20000",
"I.	c #F70000",
"J.	c #FF0D00",
"K.	c #FF2200",
"L.	c #FF7900",
"M.	c #490000",
"N.	c #520000",
"O.	c #620000",
"P.	c #740000",
"Q.	c #850000",
"R.	c #990000",
"S.	c #AC0000",
"T.	c #C00000",
"U.	c #D50000",
"V.	c #EA0000",
"W.	c #FE0000",
"X.	c #FF1400",
"Y.	c #FF2900",
"Z.	c #AF8100",
"`.	c #540000",
" +	c #580000",
".+	c #650000",
"++	c #730000",
"@+	c #830000",
"#+	c #940000",
"$+	c #A50000",
"%+	c #B80000",
"&+	c #CB0000",
"*+	c #DF0000",
"=+	c #F30000",
"-+	c #FF1C00",
";+	c #FFB800",
">+	c #630000",
",+	c #6C0000",
"'+	c #780000",
")+	c #930000",
"!+	c #A30000",
"~+	c #B40000",
"{+	c #C50000",
"]+	c #D70000",
"^+	c #FD0000",
"/+	c #FF1100",
"(+	c #FF3A00",
"_+	c #7D0000",
":+	c #770000",
"<+	c #800000",
"[+	c #8B0000",
"}+	c #980000",
"|+	c #B30000",
"1+	c #C30000",
"2+	c #D30000",
"3+	c #E50000",
"4+	c #F60000",
"5+	c #FF0A00",
"6+	c #FF4300",
"7+	c #FF5600",
"8+	c #8D0000",
"9+	c #960000",
"0+	c #9F0000",
"a+	c #AA0000",
"b+	c #B60000",
"c+	c #C40000",
"d+	c #E30000",
"e+	c #F40000",
"f+	c #FF0500",
"g+	c #FF1600",
"h+	c #FFA200",
"i+	c #AB0000",
"j+	c #BE0000",
"k+	c #C90000",
"l+	c #D60000",
"m+	c #E40000",
"n+	c #FF0300",
"o+	c #FF3500",
"p+	c #E10300",
"q+	c #E60500",
"r+	c #EC0600",
"s+	c #F70900",
"t+	c #FF1000",
"u+	c #FF3200",
"                                                                ",
"      .                                                         ",
"      + @ # $ # % & *                                           ",
"      = - ; > , ' ) ! ' > ~ { ]                                 ",
"        ^ ! / ( _ : _ < [ } | 1 ; 2 3 4                         ",
"            / 5 6 7 7 8 9 0 a b | c d e f g                     ",
"                  h i j k l 6 m _ n o p 2 q r                   ",
"                      s t u v w x y z ! ; A B C                 ",
"                            D s E 7 0 z ! F G H I J             ",
"                              K L M N O P Q - R S T             ",
"                                  U M 6 V W X ^ ] Y Z           ",
"                                    `  ...+.) @.#.$.%.&.        ",
"                                      *.=.0 -.;.^ B >.,.        ",
"                                      '.E ).< ! d !.~.{.        ",
"                                        ].^./.(._.G :.<.[.      ",
"                                        t }.m / > ^ |.4 1.      ",
"                                        K 2.3.( , 4.* Y 5.      ",
"                                      6.7.j 8.9.! - & 0.a.      ",
"                                      b.c.*.N a d.e.% f.g.      ",
"                                    h.i.j.].k.l.| @.R ~.        ",
"                                  m.n.i.o.].N a | @.R p.        ",
"                                q.r.s.t.u.i 7 : d.d % v.        ",
"                              w.q.x.h.y.z.v 8 9.! - & A.        ",
"                    B.C.D.E.F.G.H.I.J.K.K E 3.L.Q 4.3           ",
"              M.N.O.P.Q.R.S.T.U.V.W.X.Y.t }.m P > ^ Z.          ",
"            `. +.+++@+#+$+%+&+*+=+h.-+u.].^./.(._.;+            ",
"            >+,+'+Q.)+!+~+{+]+V.^+/+6.(+2.x < ! ^               ",
"          _+:+<+[+}+$+|+1+2+3+4+5+b.u.6+7+0 n 4.                ",
"          R.8+9+0+a+b+c+2+d+e+f+g+Y.D E x -.h+                  ",
"            |+i+~+j+k+l+m+=+n+X.6.o+M O                         ",
"                  p+q+r+s+t+y.u+].                              ",
"                                                                "};
