/* XPM */
static const char * WMAASlices_xpm[] = {
"32 32 298 2",
"  	c None",
". 	c #FFFFFF",
"+ 	c #FFFEFE",
"@ 	c #FEFFFE",
"# 	c #FDFFFD",
"$ 	c #FFFEFF",
"% 	c #FFFDFD",
"& 	c #FFFCFC",
"* 	c #FFFBFB",
"= 	c #FEEAEA",
"- 	c #FFECEC",
"; 	c #E2FFE2",
"> 	c #E8FFE8",
", 	c #EFFEEF",
"' 	c #F6FFF6",
") 	c #FAFFFA",
"! 	c #FAFFFB",
"~ 	c #FBFFFB",
"{ 	c #FDFEFC",
"] 	c #FDFCFB",
"^ 	c #FDFBF9",
"/ 	c #FEF3F2",
"( 	c #FEDFDE",
"_ 	c #FFCACA",
": 	c #FFB6B6",
"< 	c #FFAEAE",
"[ 	c #FFD5D5",
"} 	c #B2FFB2",
"| 	c #AFFFAF",
"1 	c #AEFFAF",
"2 	c #B3FEB3",
"3 	c #BDFCBA",
"4 	c #C6FAC1",
"5 	c #D1F7C9",
"6 	c #E9E7D1",
"7 	c #E3DABF",
"8 	c #DEC8A7",
"9 	c #E6B79E",
"0 	c #EDB6A4",
"a 	c #F4B4AA",
"b 	c #F8B4AE",
"c 	c #F8B2AC",
"d 	c #F9D7D2",
"e 	c #B5FFB5",
"f 	c #B5FCB3",
"g 	c #BAF7B2",
"h 	c #C3EEB2",
"i 	c #D6DAB2",
"j 	c #EAC6B1",
"k 	c #FCB3B1",
"l 	c #FFAFB1",
"m 	c #CAC18C",
"n 	c #AECA79",
"o 	c #AFCA7B",
"p 	c #AFCB7B",
"q 	c #AECB7B",
"r 	c #B3CA7E",
"s 	c #B9C680",
"t 	c #C0E1A2",
"u 	c #C8FFC8",
"v 	c #D6FFD6",
"w 	c #CDE5B3",
"x 	c #F9B8B3",
"y 	c #FFAFB3",
"z 	c #FFB1B3",
"A 	c #FFB2B3",
"B 	c #CCC290",
"C 	c #B1CA7C",
"D 	c #B2C97D",
"E 	c #B2CA7D",
"F 	c #B2C87B",
"G 	c #B1E396",
"H 	c #B1FFB1",
"I 	c #BEFFBE",
"J 	c #B4FEB3",
"K 	c #D9D9B3",
"L 	c #FFAEB3",
"M 	c #FEB3B3",
"N 	c #FFB3B3",
"O 	c #CDC290",
"P 	c #B3C87C",
"Q 	c #B3E397",
"R 	c #B2FFB3",
"S 	c #C0FFC0",
"T 	c #D8DAB3",
"U 	c #B2C97E",
"V 	c #B3FFB3",
"W 	c #B5FFB2",
"X 	c #D9DBB3",
"Y 	c #B3CA7D",
"Z 	c #B4CA7D",
"` 	c #B4CB7D",
" .	c #B5C97B",
"..	c #B1E197",
"+.	c #B2FEB3",
"@.	c #BFFFBD",
"#.	c #FEFEFF",
"$.	c #FEFFFB",
"%.	c #B0FBB4",
"&.	c #A5F3AF",
"*.	c #CDD2B0",
"=.	c #FFB0B3",
"-.	c #FEB2B3",
";.	c #CEC38F",
">.	c #B2CB7B",
",.	c #B5CB7D",
"'.	c #ABC580",
").	c #A4BF82",
"!.	c #9DB983",
"~.	c #95C99B",
"{.	c #96E3B3",
"].	c #A3E4BD",
"^.	c #E4DEFF",
"/.	c #E3E3FF",
"(.	c #E6E6FF",
"_.	c #E9E9FF",
":.	c #ECECFF",
"<.	c #EEEEFF",
"[.	c #FDFDFF",
"}.	c #F1F1FF",
"|.	c #E6E5FF",
"1.	c #D8DAFD",
"2.	c #AED1DC",
"3.	c #A3C8D6",
"4.	c #CABBC4",
"5.	c #FFB2B1",
"6.	c #FEB2B2",
"7.	c #FFB3B2",
"8.	c #FFB4B2",
"9.	c #FFB5B1",
"0.	c #FFB5B3",
"a.	c #CABE93",
"b.	c #A4C280",
"c.	c #9BBD81",
"d.	c #93B783",
"e.	c #8BB186",
"f.	c #82AA89",
"g.	c #7AA38B",
"h.	c #79B49E",
"i.	c #79C8B1",
"j.	c #80C2BD",
"k.	c #B1ACFF",
"l.	c #B1B1FF",
"m.	c #B7B7FF",
"n.	c #C6C6FF",
"o.	c #D6D6FF",
"p.	c #F9F9FF",
"q.	c #E8E8FF",
"r.	c #D8D8FF",
"s.	c #CDCDFF",
"t.	c #C2C2FF",
"u.	c #B6B6FE",
"v.	c #ADADFF",
"w.	c #B3ADFF",
"x.	c #B5AEFF",
"y.	c #D8B1DB",
"z.	c #FFB4AE",
"A.	c #FDB2B3",
"B.	c #F1A9B7",
"C.	c #E5A1BA",
"D.	c #D998BF",
"E.	c #BB96B4",
"F.	c #A595AD",
"G.	c #9B92AC",
"H.	c #9391AA",
"I.	c #9193A6",
"J.	c #8F95A3",
"K.	c #8D969F",
"L.	c #89ABB1",
"M.	c #87C2C4",
"N.	c #8CC7C3",
"O.	c #C6C1FF",
"P.	c #CECEFF",
"Q.	c #DADAFF",
"R.	c #E5E5FF",
"S.	c #F0F0FF",
"T.	c #FCFCFF",
"U.	c #FAFAFF",
"V.	c #EBEBFF",
"W.	c #DDDDFF",
"X.	c #D3D3FF",
"Y.	c #D0D0FF",
"Z.	c #CCCCFF",
"`.	c #C8C8FE",
" +	c #B3C4EE",
".+	c #B3BFF2",
"++	c #D5B5D6",
"@+	c #EFA5B5",
"#+	c #D999BE",
"$+	c #CB8EC3",
"%+	c #C087C6",
"&+	c #B680C9",
"*+	c #AD79CB",
"=+	c #B078CE",
"-+	c #B478CF",
";+	c #B579CE",
">+	c #B37BCC",
",+	c #B07BCB",
"'+	c #AE80C5",
")+	c #AB8DB4",
"!+	c #A8B5BC",
"~+	c #A6DFC7",
"{+	c #ADEAC2",
"]+	c #F3EEFF",
"^+	c #FBFBFF",
"/+	c #F8F7FF",
"(+	c #F2F4FD",
"_+	c #B5F0C3",
":+	c #B3ECC4",
"<+	c #D5CFBE",
"[+	c #F5A7B6",
"}+	c #E4A0BB",
"|+	c #DB9ABD",
"1+	c #D797BF",
"2+	c #D394C0",
"3+	c #D092C1",
"4+	c #BB93B8",
"5+	c #B290B7",
"6+	c #B38CBC",
"7+	c #B391B6",
"8+	c #B3A0A7",
"9+	c #B3AC9B",
"0+	c #B4B490",
"a+	c #B4D9A1",
"b+	c #B4FFB5",
"c+	c #BFFFBC",
"d+	c #FEFFFD",
"e+	c #B5FFB3",
"f+	c #B3FFB0",
"g+	c #D6DDB1",
"h+	c #FFB0B2",
"i+	c #FBB0B4",
"j+	c #F9AEB5",
"k+	c #CAB997",
"l+	c #B1BD89",
"m+	c #B3BA8D",
"n+	c #B3BD8A",
"o+	c #B3C780",
"p+	c #B3CC7B",
"q+	c #B3CA79",
"r+	c #B3E496",
"s+	c #BDFEBD",
"t+	c #D6DCB3",
"u+	c #B1CC7B",
"v+	c #B3CB7C",
"w+	c #BDFFBD",
"x+	c #B3E195",
"y+	c #B3C97D",
"z+	c #B3C579",
"A+	c #AFFEAE",
"B+	c #D4DCB0",
"C+	c #CDC28F",
"D+	c #B1C97B",
"E+	c #B3C77B",
"F+	c #B3D488",
"G+	c #B3E296",
"H+	c #B3F0A4",
"I+	c #B3FBAF",
"J+	c #F7FFF7",
"K+	c #F0FEEF",
"L+	c #F4DCD1",
"M+	c #FFAFB0",
"N+	c #FFB2B2",
"O+	c #FFB1B1",
"P+	c #FFB0B0",
"Q+	c #FFAEB0",
"R+	c #CEC796",
"S+	c #AEDE8D",
"T+	c #AFEB9C",
"U+	c #AFF7A8",
"V+	c #B0FBAC",
"W+	c #B0FDAE",
"X+	c #B1FEB0",
"Y+	c #B1FEB1",
"Z+	c #BCFFBC",
"`+	c #FEFEFD",
" @	c #FEDBDB",
".@	c #FFADAD",
"+@	c #FFAFAF",
"@@	c #FFB4B4",
"#@	c #FFC6C6",
"$@	c #FFDBDB",
"%@	c #FFF0F0",
"&@	c #FBFBF8",
"*@	c #F8FDF6",
"=@	c #F1FEF1",
"-@	c #EBFFEB",
";@	c #E3FFE3",
">@	c #DCFFDC",
",@	c #D4FFD5",
"'@	c #CDFFCD",
")@	c #C5FFC5",
"!@	c #FFE4E4",
"~@	c #FED0D0",
"{@	c #FFE9E9",
"]@	c #FFF9F9",
"^@	c #FEFEFE",
"/@	c #FCFFFC",
". . . . . . . . . . . . . . . . . . . . + . . . + . . . . . . . ",
". . . . . @ . . . . . @ . . . . + . . . . . + + . . . . . . . . ",
". . . . . . @ # @ @ . . . $ . . . . + % & * = - . . . . . . . . ",
". . . . . . # ; > , ' ) ) ! ~ { ] ^ / ( _ : < [ . . @ . . . . . ",
". . . . . . ~ } | | 1 2 3 4 5 6 7 8 9 0 a b c d ! ~ . . . . . . ",
". . . . . . ~ e 2 f g h i j k l m n o p q r s t u v . . . . . . ",
". . . . . . ~ e 2 w x y y z A A B C r r D E F G H I . . . . . . ",
". . . . . . ~ e J K L A M N N A O C r r r r P Q R S . . . . . . ",
". . . . . . ~ e 2 T y N N N N A O C r r r r P Q R S . . . . . . ",
". . . . . . ~ e 2 T y N N N N A O C r r r r P Q R S . . . . . . ",
". . . . . . ~ e 2 T y N N N N A O C r r r r P Q R S . . . . . . ",
". . . . . . ~ e 2 T y N N N N A O C r r r r P Q R S . . . . . . ",
". . . . . . ~ e 2 T y N N N N A O C r r r U P Q V I $ . . . . . ",
". . . . . $ ~ e W X y N N N N A O C E Y Z `  ...+.@.. . . . . . ",
". #.. . . . $.%.&.*.=.N N N -.A ;.>.,.r '.).!.~.{.].^./.(._.:.<.",
". . . [.}.|.1.2.3.4.5.6.7.8.9.0.a.b.c.d.e.f.g.h.i.j.k.l.m.n.o.(.",
"p.q.r.s.t.u.v.w.x.y.z.9.A.B.C.D.E.F.G.H.I.J.K.L.M.N.O.P.Q.R.S.T.",
"U.V.W.X.Y.Z.`. +.+++@+#+$+%+&+*+=+-+;+>+,+'+)+!+~+{+]+U.. . . . ",
". . . #.^+/+(+_+:+<+[+}+|+1+2+3+4+5+6+7+8+9+0+a+b+c+. . . #.. . ",
"#.. . . . . d+e+f+g+h+8.8.-.i+j+k+l+m+n+o+p+q+r+R s+. . . . . . ",
". . . . . . # e 2 t+y -.7.7.7.N ;.u+v+v+Y Y P Q R w+. . . . . . ",
". . . . . . # e 2 t+y N N N N A O C r r r r P Q R w+. . . . . . ",
". . . . . . # e 2 t+y N N N N A O C r r r r P Q R w+. . . . . . ",
". . . . . . # e 2 t+y N N N N A O C r r r r P Q R w+. . . . . . ",
". . . . . . # e 2 t+y N N N N A O C r r r r P x+R w+. . . . . . ",
". . . . . . # e 2 t+y N N N N A O C r y+y+P z+x+R w+. . . . . . ",
". . . . . . # } A+B+y N N N N A C+D+E+y+F+G+H+I+} w+. . . . . . ",
". . . . . . @ J+K+L+M+N N+O+P+Q+R+S+T+U+V+W+X+H Y+Z+. . . . . . ",
". . . . . @ . . `+ @.@+@@@#@$@%@&@*@=@-@;@>@,@'@)@u . . . . . . ",
". . . . . . @ . + !@~@{@]@& % ^@. . @ @ ^@# # /@/@/@. . . . . . ",
". . . . . . . . + + % + . . . . ^@. . . . . . . . . @ . . . . . ",
". . . . . . . . . . . . . + . . . . . . . . . . . . . . . . . . "};
