/* XPM */
static const char * detTractCulling_xpm[] = {
"32 32 3 1",
" 	c None",
".	c #76B2FF",
"+	c #000000",
"                                ",
"        ...                     ",
"       ....                     ",
"      .....  ...     ...        ",
"     .....   ...     ...        ",
"    .....    ...     ....       ",
"   .....     ...     ....       ",
"  .....      ...      ...       ",
"  ....       ...      ...       ",
"  ....       ...   +++....   +++",
"   ....      ...   ++++...  ++++",
"   ....      ....  ++++++..+++++",
"    ....     .....  ++++++.++++ ",
"    ....      ....   +++++++++  ",
"     ....      ....    +++++++  ",
"     ....      .....    ++++++  ",
"      ...       ....    +++++++ ",
"     ....      .....   +++++++++",
"     ....      ....   +++++.++++",
"     ...      ....    ++++...+++",
"    ....     .....    +++  ...  ",
"    ....     ....          ...  ",
"   ....     ....          ....  ",
"   ....     ....          ....  ",
"   ...     ....          ....   ",
"  ....     ....          ....   ",
"  ....     ...          ....    ",
"  ...      ...          ....    ",
"  ...                   ...     ",
"                                ",
"                                ",
"                                "};
