/* XPM */
static const char * WMAtlasCreator_xpm[] = {
"32 32 245 2",
"  	c None",
". 	c #FFE300",
"+ 	c #FFE400",
"@ 	c #FFE100",
"# 	c #FFE200",
"$ 	c #FFE000",
"% 	c #FFDF00",
"& 	c #FFD600",
"* 	c #FFD700",
"= 	c #FFD500",
"- 	c #FFD400",
"; 	c #FFCC00",
"> 	c #FFCB00",
", 	c #FFCA00",
"' 	c #FFC900",
") 	c #FFC100",
"! 	c #FFC000",
"~ 	c #FFBF00",
"{ 	c #FFBE00",
"] 	c #FFB500",
"^ 	c #FFB600",
"/ 	c #FFB200",
"( 	c #FFB100",
"_ 	c #FFAE00",
": 	c #FFAD00",
"< 	c #FFAA00",
"[ 	c #FFAB00",
"} 	c #FFA600",
"| 	c #FFA700",
"1 	c #FFA300",
"2 	c #FFA400",
"3 	c #FFA000",
"4 	c #FFA100",
"5 	c #FF9D00",
"6 	c #000000",
"7 	c #FF9C00",
"8 	c #FF9A00",
"9 	c #FF9900",
"0 	c #FF9600",
"a 	c #FF9500",
"b 	c #FF9200",
"c 	c #FF9300",
"d 	c #FF8F00",
"e 	c #FF8C00",
"f 	c #FF8B00",
"g 	c #FF8800",
"h 	c #FF8801",
"i 	c #FF8900",
"j 	c #FE8800",
"k 	c #FE8701",
"l 	c #FE8702",
"m 	c #FD8702",
"n 	c #FD8701",
"o 	c #FE8801",
"p 	c #FC8603",
"q 	c #FD8603",
"r 	c #FD8602",
"s 	c #FC8602",
"t 	c #FD8502",
"u 	c #FC8504",
"v 	c #FB8504",
"w 	c #FC8404",
"x 	c #FC8503",
"y 	c #FB8404",
"z 	c #FA8305",
"A 	c #FB8405",
"B 	c #C16503",
"C 	c #8D4A02",
"D 	c #FB8305",
"E 	c #703B02",
"F 	c #FA8405",
"G 	c #DF7505",
"H 	c #1E0F00",
"I 	c #FA8306",
"J 	c #FB8306",
"K 	c #FB8406",
"L 	c #F98307",
"M 	c #F98206",
"N 	c #F98207",
"O 	c #371D01",
"P 	c #482601",
"Q 	c #6E3A03",
"R 	c #F98306",
"S 	c #FA8206",
"T 	c #110900",
"U 	c #A65704",
"V 	c #542C02",
"W 	c #FA8307",
"X 	c #FA8207",
"Y 	c #F88207",
"Z 	c #F98108",
"` 	c #F88108",
" .	c #A65605",
"..	c #492602",
"+.	c #A35505",
"@.	c #502902",
"#.	c #F88107",
"$.	c #703A03",
"%.	c #8B4803",
"&.	c #F98107",
"*.	c #DC7306",
"=.	c #402101",
"-.	c #050300",
";.	c #1A0D00",
">.	c #A25405",
",.	c #8F4A04",
"'.	c #0D0700",
").	c #130A00",
"!.	c #9F5205",
"~.	c #F78009",
"{.	c #F78109",
"].	c #F27D07",
"^.	c #261401",
"/.	c #D26C07",
"(.	c #C66607",
"_.	c #311901",
":.	c #F88109",
"<.	c #D76F06",
"[.	c #201101",
"}.	c #F88009",
"|.	c #F88008",
"1.	c #391D02",
"2.	c #C06407",
"3.	c #3B1E02",
"4.	c #914B05",
"5.	c #EF7B08",
"6.	c #BD6206",
"7.	c #0C0600",
"8.	c #0A0500",
"9.	c #D16B07",
"0.	c #BD6106",
"a.	c #F67F0B",
"b.	c #F67F0A",
"c.	c #8B4805",
"d.	c #643304",
"e.	c #E47509",
"f.	c #130900",
"g.	c #974E06",
"h.	c #633304",
"i.	c #F77F0A",
"j.	c #F27C09",
"k.	c #0F0700",
"l.	c #EF7B09",
"m.	c #E77709",
"n.	c #D46C09",
"o.	c #C86608",
"p.	c #994F06",
"q.	c #180C00",
"r.	c #F67E0A",
"s.	c #4A2603",
"t.	c #3D1F02",
"u.	c #C36307",
"v.	c #F67E0B",
"w.	c #F77F0B",
"x.	c #F57D0B",
"y.	c #E6760A",
"z.	c #1D0F01",
"A.	c #DD720A",
"B.	c #F57E0B",
"C.	c #0B0500",
"D.	c #EC790A",
"E.	c #F57E0C",
"F.	c #582D03",
"G.	c #A45408",
"H.	c #F67E0C",
"I.	c #C36408",
"J.	c #341B02",
"K.	c #A15307",
"L.	c #060300",
"M.	c #321A02",
"N.	c #4B2703",
"O.	c #F27C0A",
"P.	c #A05207",
"Q.	c #291501",
"R.	c #844405",
"S.	c #F47D0D",
"T.	c #723A06",
"U.	c #CC680A",
"V.	c #1B0E01",
"W.	c #E2740C",
"X.	c #F47C0D",
"Y.	c #8D4706",
"Z.	c #6A3605",
"`.	c #F47C0C",
" +	c #1A0D01",
".+	c #C7660A",
"++	c #381C02",
"@+	c #A45308",
"#+	c #070300",
"$+	c #E9760B",
"%+	c #F57D0D",
"&+	c #DE710A",
"*+	c #F47D0C",
"=+	c #241202",
"-+	c #EB780D",
";+	c #F37C0E",
">+	c #F37B0E",
",+	c #432203",
"'+	c #AE580A",
")+	c #DC700C",
"!+	c #130901",
"~+	c #EB780C",
"{+	c #562B04",
"]+	c #9F5009",
"^+	c #100800",
"/+	c #B85D0A",
"(+	c #E4740D",
"_+	c #6D3706",
":+	c #E0710C",
"<+	c #3D1F03",
"[+	c #793D07",
"}+	c #EA760D",
"|+	c #9E5009",
"1+	c #271302",
"2+	c #EF7812",
"3+	c #EF7712",
"4+	c #603007",
"5+	c #8D460A",
"6+	c #E37212",
"7+	c #261302",
"8+	c #2A1503",
"9+	c #201002",
"0+	c #D06810",
"a+	c #EF7713",
"b+	c #92480B",
"c+	c #0D0601",
"d+	c #211002",
"e+	c #8D460B",
"f+	c #0E0701",
"g+	c #DC6D11",
"h+	c #EE7613",
"i+	c #CC6510",
"j+	c #361B04",
"k+	c #050200",
"l+	c #2B1503",
"m+	c #BE5F10",
"n+	c #EE7614",
"o+	c #E76F1C",
"p+	c #E76F1B",
"q+	c #E76E1C",
"r+	c #E86F1B",
"s+	c #E66E1C",
"t+	c #E66E1D",
"u+	c #E76E1D",
"v+	c #E66D1D",
"      . + . + . + . + + + + + + . + . + + . + . + + + . .       ",
"    @ # @ # # @ @ # @ @ @ @ @ @ $ $ @ @ @ $ $ @ $ $ $ $ $ %     ",
"  & & & & & * * & & & & = & = = = & & = = = = = = = = - - = -   ",
"; ; > > > > > > > > , > > > > > , , > , , , , , ' , , , , ' ' , ",
") ! ! ! ! ! ! ! ~ ! ! ~ ! ! ~ ~ ~ ! ~ ~ ~ ~ ~ ~ ~ ~ ~ ~ ~ { ~ { ",
"] ^ ] ] ] ^ ^ ^ ] ] ^ ^ ^ ] ^ ] ] ^ ^ ^ ] ^ ] ^ ] ] ] ] ^ ] ] ] ",
"/ ( ( ( ( ( ( ( ( ( ( ( ( ( ( ( ( ( ( ( ( ( ( ( / ( ( ( ( ( ( ( ",
"_ _ _ : _ _ _ _ _ _ _ _ : _ : _ _ : : _ _ _ _ : : : : _ _ _ _ : ",
"< < < < [ < < < [ [ < < [ [ < < [ < [ < < < < < < < < [ < < < < ",
"} | | | | | | | | | | | | | | } | | | | | | | | | | | | } | | | ",
"1 1 1 1 2 1 2 1 2 2 1 1 1 1 1 2 1 2 1 2 2 1 1 2 2 2 2 2 2 2 2 2 ",
"3 3 3 3 3 3 3 3 3 3 3 3 3 3 3 4 3 4 3 3 3 3 3 3 3 3 3 3 3 3 3 3 ",
"5 5 6 6 6 6 7 7 5 5 7 7 7 5 7 7 5 7 7 5 7 5 7 6 5 5 5 7 7 5 5 7 ",
"8 6 8 9 9 9 6 9 9 9 9 9 9 8 9 9 8 8 8 9 9 9 8 6 9 9 9 9 9 9 9 9 ",
"0 6 a 0 a 0 0 0 6 0 6 0 a 6 6 0 0 6 6 6 0 0 6 6 6 0 0 6 6 0 a 0 ",
"b 6 b b c b b b 6 6 b b 6 c b 6 b b b b 6 b c 6 b b 6 b b 6 b b ",
"d 6 d d d d d d 6 d d d 6 6 6 6 d d 6 6 6 d d 6 d d 6 6 6 6 d d ",
"e 6 f e f e f f 6 f e e 6 f e e e 6 e e 6 f e 6 f f 6 f f e f e ",
"g 6 h g i i 6 g 6 j g i 6 g g 6 i 6 g i 6 g g 6 i g 6 g g 6 g g ",
"k k 6 6 6 6 l k 6 m k n k 6 6 k o m 6 6 k 6 l 6 6 n n 6 6 l l l ",
"p q q r q r r r q p p q p r q q q s q r r p r r q r t r r q q r ",
"u v u w v u u x u v v x w u v x w u x u w u v u u w u w u y v y ",
"z A A A B 6 C A D D E A F G H A D A A z D A D F F D I z J K D F ",
"L M N I O P Q R S L T R M U V I S R I I W X I X S I R R R N X X ",
"Y Z `  ...+.@.Z #.6 6 6 #.$.%.&.*.=.-.;.>.` ` ,.'.).!.Z Z &.Z #.",
"~.{.].^./.(._.~.:.<.[.}.|.1.2.~.3.4.5.6.7.}.}.8.9.0.).~.~.~.}.}.",
"a.b.c.d.b.e.f.b.b.g.h.i.j.k.l.b.m.n.o.p.q.r.b.s.t.u.b.v.w.b.b.b.",
"x.y.z.A.B.x.C.D.E.F.G.H.I.J.B.K.L.M.N.M.F.B.x.O.P.Q.R.B.x.B.B.B.",
"S.T.6 6 6 6 6 U.S.V.W.X.Y.Z.`. +.+X.S.++@+X.#+$+%+&+C.S.S.*+S.S.",
"  =+-+;+;+>+,+'+)+!+~+;+{+]+>+^+/+(+_+6 :+;+<+[+}+|+1+;+>+>+>+  ",
"    2+2+3+3+4+5+6+7+8+3+9+0+a+b+c+d+e+f+g+h+i+j+k+l+m+h+n+h+    ",
"      o+p+q+p+r+o+o+q+o+q+q+s+o+s+q+t+t+t+q+t+q+s+u+t+v+v+      "};
