/* XPM */
static const char * detTractClustering_xpm[] = {
"32 32 3 1",
" 	c None",
".	c #76B2FF",
"+	c #FF8282",
"                                ",
"          ...                   ",
"  ...     ....     +++    +++   ",
"  ....    .....    ++++   +++   ",
"  .....    .....   ++++   ++++  ",
"   .....    .....   ++++  ++++  ",
"    .....    .....  ++++   ++++ ",
"     .....    ....   ++++  ++++ ",
"      .....   ....   ++++   ++++",
"       ....  ....     ++++  ++++",
"      ..... .....     ++++   +++",
"     ..... .....       +++   +++",
"     ....  ....        +++   +++",
"    ....  ....         +++   +++",
"   .....  ....         +++   +++",
"  .....   ....         +++   +++",
"  ....     ....        +++   +++",
"  .....    ....        +++   +++",
"   .....    ....       +++   +++",
"    .....   ....      ++++  ++++",
"     .....   ....     ++++  ++++",
"      .....  ....     +++   +++ ",
"       ....   ....    +++   +++ ",
"      .....   ....   ++++  ++++ ",
"     .....     ...   ++++  ++++ ",
"    .....     ....   +++   +++  ",
"   .....      ....  ++++  ++++  ",
"  .....       ...   ++++  ++++  ",
"  ....        ...   +++   +++   ",
"  ...         ...   +++   +++   ",
"                                ",
"                                "};
