/* XPM */
static const char * WMElevationImageExport_xpm[] = {
"32 32 81 1",
" 	c #7D7D7D",
".	c #7F7F7F",
"+	c #828282",
"@	c #7A7A7A",
"#	c #707070",
"$	c #6B6B6B",
"%	c #777777",
"&	c #161616",
"*	c #BFBFBF",
"=	c #878787",
"-	c #D1D1D1",
";	c #B7B7B7",
">	c #E3E3E3",
",	c #C1C1C1",
"'	c #E0E0E0",
")	c #CCCCCC",
"!	c #C4C4C4",
"~	c #C7C7C7",
"{	c #333333",
"]	c #444444",
"^	c #3A3A3A",
"/	c #1E1E1E",
"(	c #EFEFEF",
"_	c #EAEAEA",
":	c #E5E5E5",
"<	c #D8D8D8",
"[	c #BABABA",
"}	c #CECECE",
"|	c #848484",
"1	c #2B2B2B",
"2	c #303030",
"3	c #6D6D6D",
"4	c #191919",
"5	c #212121",
"6	c #DEDEDE",
"7	c #EDEDED",
"8	c #E8E8E8",
"9	c #A8A8A8",
"0	c #282828",
"a	c #2D2D2D",
"b	c #383838",
"c	c #D3D3D3",
"d	c #B2B2B2",
"e	c #DBDBDB",
"f	c #232323",
"g	c #262626",
"h	c #A3A3A3",
"i	c #B5B5B5",
"j	c #727272",
"k	c #757575",
"l	c #1C1C1C",
"m	c #A5A5A5",
"n	c #A0A0A0",
"o	c #474747",
"p	c #4A4A4A",
"q	c #3D3D3D",
"r	c #BCBCBC",
"s	c #D6D6D6",
"t	c #3F3F3F",
"u	c #C9C9C9",
"v	c #999999",
"w	c #9E9E9E",
"x	c #8E8E8E",
"y	c #919191",
"z	c #606060",
"A	c #ABABAB",
"B	c #ADADAD",
"C	c #898989",
"D	c #8C8C8C",
"E	c #545454",
"F	c #B0B0B0",
"G	c #4C4C4C",
"H	c #969696",
"I	c #565656",
"J	c #949494",
"K	c #353535",
"L	c #686868",
"M	c #636363",
"N	c #9B9B9B",
"O	c #595959",
"P	c #F2F2F2",
" .+ @#$$$%%#&&&&&*=-;>,'))!~{]^^",
".+. @#$$$%%%/&&&&*,!(_:<[}|12]^^",
".+. @3$$$%%444&&5[-6'78(690a{b^^",
".+.@%3$$$##444&&&&c'_d>~>e00^b^^",
".+.@#$$$$##f444&5&;'8*8*'00000]b",
"++ @##$$$%44444&449)6>}'00;,,;0b",
"+. @$$$$#%f4444444a5!}gg;,,hhi,;",
"+. @@@jjj%444445f4{g45fg,hhhhhh,",
"+..   @j%j04444g042{4/5;hhhhhhhi",
"++++. @k%#f444g004b^4ll,hhhmmhnn",
"|++|. %j%g4444454/{{444,hhhmhhnn",
"=$++.@k##44444454ob444,*hnhnnnnn",
"==+. @#ggg4444455pqi,**,,nnnnnnn",
"+.  @%/l5f4l4401l=,***r,*hnnnsss",
".  @k#lllll44010pt,**r***ihrs*cc",
"  %#laallll4lllppt,*****,,scs*ss",
"@%ll0/alllllll4pttt,****,,rccs6c",
" @#la10lllllllptttt,*****rrscs!s",
"  %la00llllll1pttttt**,,**uscc~s",
". @#0gllll+vwxyttttt,t3zru!!s~~~",
"+. @b/llllnABCDtpppEptt3,r~~~~~~",
"++.@ktllllFdmmnopppG]tt,**u~~~~~",
"+.. @#lllCdddAAH|ppptttt***~~~~u",
". @@jllllHFidFhDpppItttt,**u~u,p",
" @%#lllllvFFddnJpppEGtttt**,,ott",
"@#$llllll0.hBFxpppItotttt,*,,ttt",
"#lllllll/ptyHCDpppI]KKttt,,ttttt",
"lllllll//Lttt|tpppKiKKottttttttt",
"llllll//M$$tttpppp;[[[ott]ottttt",
"llll///$$$$$ttIpp[*!*[ww;hN[[;,!",
"lll/1/$$$$$$[***[;,u*[diiBdFd[u)",
"l/a{10$$$$${[rr*O;,ur>[,;Bir[dPc"};
