/* XPM */
static const char * hud_xpm[] = {
"32 32 21 1",
" 	c None",
".	c #C7C7C7",
"+	c #7C7C7C",
"@	c #7D7D7D",
"#	c #AFAFAF",
"$	c #7E7E7E",
"%	c #C5C5C5",
"&	c #C4C4C4",
"*	c #898989",
"=	c #B8B8B8",
"-	c #B7B7B7",
";	c #A8A8A8",
">	c #8C8C8C",
",	c #BABABA",
"'	c #BBBBBB",
")	c #8E8E8E",
"!	c #A9A9A9",
"~	c #A5A5A5",
"{	c #848484",
"]	c #858585",
"^	c #A6A6A6",
"................................",
"................................",
"................................",
"................................",
"................................",
"................................",
"................................",
"................................",
"................................",
"................................",
"................................",
"................................",
"................................",
"................................",
"................................",
"................................",
"................................",
"................................",
"................................",
"................................",
"...+.....+..+.....+..+++++@#....",
"...+.....+..+.....+..+....#$#...",
"...+.....+..+.....+..+.....#@...",
"...+.....+..+.....+..+......+...",
"...+++++++..+.....+..+......+...",
"...+.....+..+.....+..+......+...",
"...+.....+..$%...&$..+......+...",
"...+.....+..*=...-*..+.....#@...",
"...+.....+..;>,%')!..+....#$#...",
"...+.....+...~{+]^...+++++@#....",
"................................",
"................................"};
