/* XPM */
static const char * WMIsoLines_xpm[] = {
"32 32 163 2",
"  	c None",
". 	c #FFFFFF",
"+ 	c #FEFEFE",
"@ 	c #F7F7F7",
"# 	c #EFEFEF",
"$ 	c #C6C6C6",
"% 	c #959595",
"& 	c #858585",
"* 	c #B8B8B8",
"= 	c #F4F4F4",
"- 	c #FDFDFD",
"; 	c #4B4B4B",
"> 	c #121212",
", 	c #232323",
"' 	c #5D5D5D",
") 	c #797979",
"! 	c #888888",
"~ 	c #575757",
"{ 	c #464646",
"] 	c #EAEAEA",
"^ 	c #F2F2F2",
"/ 	c #BCBCBC",
"( 	c #2A2A2A",
"_ 	c #131313",
": 	c #787878",
"< 	c #F0F0F0",
"[ 	c #6C6C6C",
"} 	c #080808",
"| 	c #C9C9C9",
"1 	c #737373",
"2 	c #0A0A0A",
"3 	c #3D3D3D",
"4 	c #F5F5F5",
"5 	c #CBCBCB",
"6 	c #000000",
"7 	c #DBDBDB",
"8 	c #BABABA",
"9 	c #111111",
"0 	c #444444",
"a 	c #D3D3D3",
"b 	c #ADADAD",
"c 	c #222222",
"d 	c #050505",
"e 	c #DADADA",
"f 	c #D4D4D4",
"g 	c #B2B2B2",
"h 	c #CFCFCF",
"i 	c #505050",
"j 	c #727272",
"k 	c #1F1F1F",
"l 	c #E7E7E7",
"m 	c #9C9C9C",
"n 	c #616161",
"o 	c #434343",
"p 	c #474747",
"q 	c #6A6A6A",
"r 	c #5A5A5A",
"s 	c #2B2B2B",
"t 	c #141414",
"u 	c #353535",
"v 	c #313131",
"w 	c #BDBDBD",
"x 	c #3E3E3E",
"y 	c #5E5E5E",
"z 	c #F9F9F9",
"A 	c #A4A4A4",
"B 	c #1B1B1B",
"C 	c #C7C7C7",
"D 	c #060606",
"E 	c #2D2D2D",
"F 	c #AEAEAE",
"G 	c #ECECEC",
"H 	c #E1E1E1",
"I 	c #A8A8A8",
"J 	c #BEBEBE",
"K 	c #030303",
"L 	c #FBFBFB",
"M 	c #494949",
"N 	c #3F3F3F",
"O 	c #DCDCDC",
"P 	c #D6D6D6",
"Q 	c #6E6E6E",
"R 	c #BFBFBF",
"S 	c #252525",
"T 	c #6D6D6D",
"U 	c #3B3B3B",
"V 	c #2F2F2F",
"W 	c #212121",
"X 	c #FCFCFC",
"Y 	c #0B0B0B",
"Z 	c #1A1A1A",
"` 	c #656565",
" .	c #C5C5C5",
"..	c #ABABAB",
"+.	c #1D1D1D",
"@.	c #919191",
"#.	c #B1B1B1",
"$.	c #8E8E8E",
"%.	c #757575",
"&.	c #DEDEDE",
"*.	c #B4B4B4",
"=.	c #DFDFDF",
"-.	c #0D0D0D",
";.	c #161616",
">.	c #373737",
",.	c #F8F8F8",
"'.	c #999999",
").	c #B0B0B0",
"!.	c #020202",
"~.	c #CECECE",
"{.	c #151515",
"].	c #DDDDDD",
"^.	c #343434",
"/.	c #515151",
"(.	c #242424",
"_.	c #747474",
":.	c #D0D0D0",
"<.	c #404040",
"[.	c #545454",
"}.	c #181818",
"|.	c #A5A5A5",
"1.	c #2C2C2C",
"2.	c #7F7F7F",
"3.	c #191919",
"4.	c #E6E6E6",
"5.	c #303030",
"6.	c #868686",
"7.	c #F1F1F1",
"8.	c #272727",
"9.	c #292929",
"0.	c #ACACAC",
"a.	c #595959",
"b.	c #979797",
"c.	c #B7B7B7",
"d.	c #929292",
"e.	c #070707",
"f.	c #AFAFAF",
"g.	c #A6A6A6",
"h.	c #A2A2A2",
"i.	c #F6F6F6",
"j.	c #FAFAFA",
"k.	c #EDEDED",
"l.	c #666666",
"m.	c #2E2E2E",
"n.	c #E5E5E5",
"o.	c #BBBBBB",
"p.	c #6F6F6F",
"q.	c #010101",
"r.	c #040404",
"s.	c #3C3C3C",
"t.	c #282828",
"u.	c #383838",
"v.	c #626262",
"w.	c #333333",
"x.	c #A0A0A0",
"y.	c #B6B6B6",
"z.	c #555555",
"A.	c #C4C4C4",
"B.	c #686868",
"C.	c #4D4D4D",
"D.	c #EEEEEE",
"E.	c #C2C2C2",
"F.	c #8D8D8D",
". . . . . . . . . . . . . . . . . . . . . . . . . . . . . . . . ",
". . . . . . . . . . . . . . . . . . . . . . . . . . . . . . . . ",
". . . . . . . . . . . . . . . . . . . . . . . . . . . . . . . . ",
". . . . . . . . . . . . . . . . . . . . . . . . . . . . . . . . ",
". . . . . . . . . . . . . . + . . . . . + . . . . . . . . . . . ",
". . . . . . . . . . . . . + @ # $ % & * = - . + . . . . . . . . ",
". . . . . . . . . + . . * ; > , ' ) ! ~ > { ] . + . . . . . . . ",
". . . . . . + . . ^ / ( _ : < . . . . . . [ } | . + . . . . . . ",
". . . . . + . . 1 2 3 $ 4 . . + . . . . . . 5 6 7 . + . . . . . ",
". . . . + . 8 9 0 a . . . . . . . . . . . . . b c - . . . . . . ",
". . . + . ! d e + . . . . . . . . . . f g h . . i { + + . . . . ",
". . + . j k l . + . = m n o p q r s t u o v c w . x y z + . . . ",
". + . A B . . . . C D E F G H I 8 # . . . . J K e L M N + . . . ",
". + O 6 P . + . Q t R . . . . . . . . + . + . F S . . ' { . . . ",
"+ . T ) . . L U V L . . . . . + . + . + z . + L W m . X Y R . . ",
"+ . Z 4 . L V ` - . . +  . .. . + . ..E +.@.. . #.s L . $.%.. . ",
". &.W - . *.3 . + . =.-.+.;.>.,.. '.Y '.).!.~.. . {.# . ].^.. . ",
". m /.+ . (.w . + . _.~ . :.6 C . <.[.. . }.R + . q |.. L 1.. . ",
". 2.[ . . 3.P + . . 4.5.{.+.6.- . L x t 3.x 7.. . ).; . - W . . ",
".  .8.+ . 9.0.. + + . - X X . . + . - L @ - . + . A [.. O ^.. . ",
"+ . a.^.|.R Z b.. . . . . . . . . . . + . + . . c.Z  .d.e.f.. . ",
". + . g., !.} 6 3.h.7.z X X z i.@ j.- . . L k.l.6 }.6 m.n.. . . ",
". . + . . l o.p.q.6 r.9.s.s.t.t ;.W u.v.~ w.6 6 U x.7 . . + . . ",
". . . . . + . . . y.z.+.;.D o ..A.).B.t.6 {.C.&.. . + . . . . . ",
". . . . . . . + . . . ,.D.].E.F.~ p i 2.5 D.. . + . . . . . . . ",
". . . . . . . . . . . . + . . . . . . . . + . . . . . . . . . . ",
". . . . . . . . . . . . . . . . . . . . . . . . . . . . . . . . ",
". . . . . . . . . . . . . . . . . . . . . . . . . . . . . . . . ",
". . . . . . . . . . . . . . . . . . . . . . . . . . . . . . . . ",
". . . . . . . . . . . . . . . . . . . . . . . . . . . . . . . . ",
". . . . . . . . . . . . . . . . . . . . . . . . . . . . . . . . ",
". . . . . . . . . . . . . . . . . . . . . . . . . . . . . . . . "};
