/* XPM */
static const char * WMPointsTransform_xpm[] = {
"32 32 5 1",
" 	c #FFFFFF",
".	c #3E3E3E",
"+	c #000000",
"@	c #000063",
"#	c #808080",
"                                ",
"                                ",
"                                ",
"                                ",
"                                ",
".............     ..............",
"           +.     .+            ",
"          + .     . +           ",
"          + .     . +           ",
"         +  .     .  +          ",
"         +  .     .  +          ",
"        +   .     .   +         ",
"        +   .     .   +         ",
"........   @.     .@   .........",
"       .  @ .     . @  .        ",
"       .    .     .    .        ",
" @@ @@ . @  .     .  @ . @@ @@ @",
"       .@  @.     .@  @.        ",
"       .  @ .  #  . @  .        ",
"       .    .     .    .        ",
" @@ @@ . @ +   #   + @ . @@ @@ @",
"       .@  +   #   +  @.        ",
"       .  +         +  .        ",
"       .  +         +  .        ",
" @@ @@ . +     #     + . @@ @@ @",
"       . +     #     + .        ",
"       .+             +.        ",
"........+             +.........",
"               #                ",
"               #                ",
"               #                ",
"###  ###  ###     ###  ###  ### "};
