/* XPM */
static const char * WMDetTract2GPConvert_xpm[] = {
"32 32 580 2",
"  	c None",
". 	c #EDAAA7",
"+ 	c #FBBAAA",
"@ 	c #F4D1A1",
"# 	c #D6DC99",
"$ 	c #9AC89F",
"% 	c #63A29B",
"& 	c #38698C",
"* 	c #1A2769",
"= 	c #143588",
"- 	c #07176C",
"; 	c #0A2761",
"> 	c #2A5F7F",
", 	c #589A99",
"' 	c #96C59C",
") 	c #D3DB99",
"! 	c #EFD79E",
"~ 	c #F8C0A6",
"{ 	c #F1A9A7",
"] 	c #F5ADAA",
"^ 	c #F9C4A6",
"/ 	c #EBE19D",
"( 	c #BBDAA0",
"_ 	c #7FBBA2",
": 	c #4D889C",
"< 	c #264277",
"[ 	c #0B276F",
"} 	c #1C418E",
"| 	c #05175F",
"1 	c #1D4674",
"2 	c #3D7E8C",
"3 	c #76B19B",
"4 	c #B2CB95",
"5 	c #E0D896",
"6 	c #F6CAA2",
"7 	c #F6B0A6",
"8 	c #E7A5A8",
"9 	c #ECA9A7",
"0 	c #FBB8A6",
"a 	c #F9DBA3",
"b 	c #D7E6A1",
"c 	c #9CCBA0",
"d 	c #669FA0",
"e 	c #2E5B7F",
"f 	c #112364",
"g 	c #174888",
"h 	c #081B64",
"i 	c #14326A",
"j 	c #2D6280",
"k 	c #589A98",
"l 	c #91BC92",
"m 	c #CFD590",
"n 	c #F1D09D",
"o 	c #F7B7A6",
"p 	c #ECA7AA",
"q 	c #E8A6A9",
"r 	c #F6AFA8",
"s 	c #FDD0A8",
"t 	c #F2EAA6",
"u 	c #BCD99C",
"v 	c #7CB99E",
"w 	c #3F7C8D",
"x 	c #243774",
"y 	c #0B2371",
"z 	c #183B8E",
"A 	c #091964",
"B 	c #1F4173",
"C 	c #3E7C8C",
"D 	c #72AB90",
"E 	c #B5CC91",
"F 	c #E8D79C",
"G 	c #FAC3A5",
"H 	c #EFABA8",
"I 	c #F1AAA9",
"J 	c #FDC1A9",
"K 	c #F6DDA4",
"L 	c #D0DB96",
"M 	c #90C59A",
"N 	c #539098",
"O 	c #25497E",
"P 	c #1B3184",
"Q 	c #4CA1F2",
"R 	c #193388",
"S 	c #15296B",
"T 	c #306586",
"U 	c #61A195",
"V 	c #A3C796",
"W 	c #E1E19D",
"X 	c #FCD0A5",
"Y 	c #F8B2A9",
"Z 	c #EAA7A8",
"` 	c #ECA8A8",
" .	c #FCB7A9",
"..	c #F7D3A4",
"+.	c #DBD997",
"@.	c #A2C79A",
"#.	c #5C9B9E",
"$.	c #2F5D86",
"%.	c #162872",
"&.	c #2650A4",
"*.	c #0E2479",
"=.	c #0F1962",
"-.	c #244F79",
";.	c #4E908F",
">.	c #8CBC96",
",.	c #D2E09B",
"'.	c #F9DAA4",
").	c #FDBBA9",
"!.	c #EEA8A8",
"~.	c #F5AFA8",
"{.	c #F8C9A5",
"].	c #E6D498",
"^.	c #BDCF9A",
"/.	c #73A99A",
"(.	c #427793",
"_.	c #1D3773",
":.	c #0D1668",
"<.	c #162A7C",
"[.	c #0A0C5E",
"}.	c #183A6F",
"|.	c #3C7988",
"1.	c #6EB09A",
"2.	c #BAD6A0",
"3.	c #EEE3A4",
"4.	c #FAC7A6",
"5.	c #F3AFA8",
"6.	c #E6A7A6",
"7.	c #EDAAA6",
"8.	c #F8BAA7",
"9.	c #EFCB9C",
"0.	c #D4D899",
"a.	c #92C29C",
"b.	c #5C9BA3",
"c.	c #2B5782",
"d.	c #102269",
"e.	c #1C3E90",
"f.	c #050E66",
"g.	c #0F1F65",
"h.	c #27577B",
"i.	c #4F9398",
"j.	c #94C4A0",
"k.	c #D4DD9B",
"l.	c #F1CD9E",
"m.	c #F7B8A5",
"n.	c #ECACA8",
"o.	c #E5A6A8",
"p.	c #F5AEA7",
"q.	c #F8C5A4",
"r.	c #EADB9C",
"s.	c #B7D79F",
"t.	c #76B8AA",
"u.	c #3C758E",
"v.	c #1E3573",
"w.	c #0D1E72",
"x.	c #1C3B8E",
"y.	c #090B5C",
"z.	c #1E3C6F",
"A.	c #3F788D",
"B.	c #72B19D",
"C.	c #B1CE90",
"D.	c #E5D495",
"E.	c #F6C3A2",
"F.	c #F6B3AA",
"G.	c #F0AAA7",
"H.	c #FABCA7",
"I.	c #F4D8A0",
"J.	c #D4E6A4",
"K.	c #8ECAAB",
"L.	c #4C8B99",
"M.	c #29487E",
"N.	c #0C1060",
"O.	c #1D3F8F",
"P.	c #0A0F64",
"Q.	c #152562",
"R.	c #28607A",
"S.	c #559D93",
"T.	c #93C091",
"U.	c #D2D391",
"V.	c #F2D19C",
"W.	c #FABFA9",
"X.	c #EAA8A7",
"Y.	c #F9B2A9",
"Z.	c #FBD0A6",
"`.	c #E7ECA6",
" +	c #AADAAD",
".+	c #61A5A6",
"++	c #39638B",
"@+	c #1E276E",
"#+	c #0D1A72",
"$+	c #1F48A0",
"%+	c #121A6A",
"&+	c #1E426F",
"*+	c #41808C",
"=+	c #76B498",
"-+	c #BBD196",
";+	c #E9DC99",
">+	c #FACDA8",
",+	c #EFACA8",
"'+	c #EAA7A7",
")+	c #F3ABA9",
"!+	c #FBC3A8",
"~+	c #F3E9A9",
"{+	c #C2E4AC",
"]+	c #78B9AB",
"^+	c #487D97",
"/+	c #224079",
"(+	c #14287E",
"_+	c #4DA9F7",
":+	c #0D2B7D",
"<+	c #0D2662",
"[+	c #2C6380",
"}+	c #5A9D96",
"|+	c #9DC79A",
"1+	c #D8E19C",
"2+	c #F9DAAA",
"3+	c #F4B4A8",
"4+	c #E8A8A7",
"5+	c #E7A6A8",
"6+	c #E8A6A7",
"7+	c #EBA7A7",
"8+	c #EDA8A6",
"9+	c #F0ADA7",
"0+	c #F7B3A8",
"a+	c #EDA8A8",
"b+	c #F8B6A9",
"c+	c #F8DDA7",
"d+	c #D3E4A4",
"e+	c #91C5A2",
"f+	c #5A989E",
"g+	c #325C85",
"h+	c #122970",
"i+	c #204492",
"j+	c #0B2070",
"k+	c #07125A",
"l+	c #18426F",
"m+	c #417E8C",
"n+	c #7AB49B",
"o+	c #B8D89F",
"p+	c #EFE4AA",
"q+	c #F9C4A5",
"r+	c #F5B0A9",
"s+	c #EEA5A7",
"t+	c #EFA8A8",
"u+	c #F5ABA7",
"v+	c #F6AFA6",
"w+	c #F9B4A7",
"x+	c #FCBAA7",
"y+	c #FEC5A7",
"z+	c #FACAA2",
"A+	c #F4AEA6",
"B+	c #F9D1A5",
"C+	c #E3E49E",
"D+	c #A8CC96",
"E+	c #6CAC9F",
"F+	c #477594",
"G+	c #21407B",
"H+	c #061061",
"I+	c #244096",
"J+	c #00065A",
"K+	c #102064",
"L+	c #2C597E",
"M+	c #559898",
"N+	c #93C7A2",
"O+	c #CFDFA2",
"P+	c #F0D5A1",
"Q+	c #FAC4A7",
"R+	c #FBBAA7",
"S+	c #FCBEA8",
"T+	c #FAC3A4",
"U+	c #F7C59F",
"V+	c #F5CDA0",
"W+	c #F5D5A1",
"X+	c #F5E0A2",
"Y+	c #EAE09A",
"Z+	c #EDA9A6",
"`+	c #FCC4A7",
" @	c #F1DEA0",
".@	c #C5D994",
"+@	c #8BC2A0",
"@@	c #5796A1",
"#@	c #305886",
"$@	c #171765",
"%@	c #0D1F74",
"&@	c #193787",
"*@	c #040759",
"=@	c #1D3471",
"-@	c #3B708F",
";@	c #6AADA7",
">@	c #A3CEA4",
",@	c #D9DEA0",
"'@	c #ECDDA0",
")@	c #F1DAA2",
"!@	c #EEDA9F",
"~@	c #E8D798",
"{@	c #DCD691",
"]@	c #D5D992",
"^@	c #CFDB9A",
"/@	c #C4DBA0",
"(@	c #B2D39B",
"_@	c #E8A8A6",
":@	c #FABAA8",
"<@	c #F9D7A4",
"[@	c #E1E7A1",
"}@	c #AFD8AB",
"|@	c #6EB3AC",
"1@	c #477599",
"2@	c #223776",
"3@	c #030E5E",
"4@	c #193888",
"5@	c #050D63",
"6@	c #0E1662",
"7@	c #29477E",
"8@	c #4F87A0",
"9@	c #7AB5A8",
"0@	c #A7D1A7",
"a@	c #C3DCA6",
"b@	c #C7DEA6",
"c@	c #BFD99F",
"d@	c #B2CF97",
"e@	c #A1C391",
"f@	c #95C295",
"g@	c #8AC09C",
"h@	c #7BB69D",
"i@	c #6DAC9A",
"j@	c #F3B0A9",
"k@	c #FCCAA7",
"l@	c #F5E6A7",
"m@	c #D0E9AE",
"n@	c #93C9AF",
"o@	c #599CAA",
"p@	c #2E5887",
"q@	c #131C65",
"r@	c #0A156B",
"s@	c #152E81",
"t@	c #070A5D",
"u@	c #1D2771",
"v@	c #335288",
"w@	c #4A8398",
"x@	c #6CAAA3",
"y@	c #81B8A5",
"z@	c #83BBA2",
"A@	c #7AB59A",
"B@	c #70AC97",
"C@	c #64A196",
"D@	c #5B9B97",
"E@	c #519196",
"F@	c #438090",
"G@	c #366E85",
"H@	c #EEAAA9",
"I@	c #FABAA7",
"J@	c #FDDAA7",
"K@	c #EBF1AD",
"L@	c #B5DDAD",
"M@	c #74BCAE",
"N@	c #438197",
"O@	c #253E79",
"P@	c #0F1E6C",
"Q@	c #3070BB",
"R@	c #2551A9",
"S@	c #06075B",
"T@	c #18256D",
"U@	c #27487D",
"V@	c #3E6F8E",
"W@	c #467F93",
"X@	c #437F8F",
"Y@	c #3E7989",
"Z@	c #356F83",
"`@	c #316882",
" #	c #2B5E7D",
".#	c #215074",
"+#	c #1D406C",
"@#	c #143066",
"##	c #E8A7A8",
"$#	c #F3AFA7",
"%#	c #FEC8A8",
"&#	c #F9E9AC",
"*#	c #D4E7A8",
"=#	c #97CEA3",
"-#	c #62A49E",
";#	c #3A6589",
">#	c #1A3574",
",#	c #3469B3",
"'#	c #3460B6",
")#	c #132879",
"!#	c #030759",
"~#	c #101865",
"{#	c #1B3471",
"]#	c #1D3B74",
"^#	c #17366E",
"/#	c #153069",
"(#	c #122D67",
"_#	c #0F2663",
":#	c #081B5E",
"<#	c #0C1560",
"[#	c #03135E",
"}#	c #122E7D",
"|#	c #FAB8A8",
"1#	c #FDD6AA",
"2#	c #E8E39E",
"3#	c #B8D495",
"4#	c #7CB897",
"5#	c #4D8893",
"6#	c #2C5480",
"7#	c #0A2465",
"8#	c #07085C",
"9#	c #12287E",
"0#	c #18348D",
"a#	c #060D66",
"b#	c #0E1168",
"c#	c #090A60",
"d#	c #050B5D",
"e#	c #040C5C",
"f#	c #01105E",
"g#	c #1B3B8A",
"h#	c #3580CD",
"i#	c #183E90",
"j#	c #1A4895",
"k#	c #0D2576",
"l#	c #F2AEAA",
"m#	c #FDC2AA",
"n#	c #F4D6A0",
"o#	c #D4D991",
"p#	c #A2C78E",
"q#	c #6FA897",
"r#	c #488093",
"s#	c #305984",
"t#	c #223277",
"u#	c #101567",
"v#	c #0C186D",
"w#	c #4184D5",
"x#	c #3C85D9",
"y#	c #0D2980",
"z#	c #172F85",
"A#	c #142A80",
"B#	c #102F85",
"C#	c #204CA1",
"D#	c #357BCA",
"E#	c #08176E",
"F#	c #090B5E",
"G#	c #131662",
"H#	c #E7A7A7",
"I#	c #F6B1A7",
"J#	c #F6C3A6",
"K#	c #E4CA94",
"L#	c #CCD28E",
"M#	c #9CC38F",
"N#	c #74AD92",
"O#	c #539496",
"P#	c #37708D",
"Q#	c #244C79",
"R#	c #13275F",
"S#	c #234A8E",
"T#	c #2754A1",
"U#	c #0C1A67",
"V#	c #060F5E",
"W#	c #050B5A",
"X#	c #080D5B",
"Y#	c #0C1662",
"Z#	c #152670",
"`#	c #192C6E",
" $	c #1E3A71",
".$	c #294C7E",
"+$	c #EBA9A7",
"@$	c #F8B3A9",
"#$	c #F7BDA0",
"$$	c #EACF96",
"%$	c #CED793",
"&$	c #A9CF92",
"*$	c #8AC39F",
"=$	c #6AACA1",
"-$	c #468896",
";$	c #2C627E",
">$	c #1A436D",
",$	c #173066",
"'$	c #18356C",
")$	c #1C3771",
"!$	c #1F3872",
"~$	c #223F74",
"{$	c #2A4B7A",
"]$	c #2E5682",
"^$	c #326583",
"/$	c #3E798C",
"($	c #4E909B",
"_$	c #EEA9A7",
":$	c #FAB0A6",
"<$	c #F9C0A3",
"[$	c #EDD49F",
"}$	c #DDE19E",
"|$	c #C5DEA3",
"1$	c #A0CDA1",
"2$	c #75B29A",
"3$	c #559591",
"4$	c #3F7C88",
"5$	c #397586",
"6$	c #3D7A8C",
"7$	c #437D93",
"8$	c #478198",
"9$	c #4D899A",
"0$	c #53939B",
"a$	c #57999A",
"b$	c #63A39A",
"c$	c #74B19D",
"d$	c #8AC2A7",
"e$	c #EEA8A7",
"f$	c #F9B2A8",
"g$	c #FDC8A7",
"h$	c #FBDCA6",
"i$	c #EDE6A1",
"j$	c #D2E09D",
"k$	c #B0D096",
"l$	c #91BE90",
"m$	c #7BB08D",
"n$	c #74AE90",
"o$	c #78B399",
"p$	c #81BEA6",
"q$	c #8AC5AE",
"r$	c #90C9AF",
"s$	c #94CAAB",
"t$	c #97C79A",
"u$	c #A3CC95",
"v$	c #B5D699",
"w$	c #CBE1A1",
"x$	c #EEAAA7",
"y$	c #F9B4A8",
"z$	c #FEC3AA",
"A$	c #FBD4A6",
"B$	c #F1DAA0",
"C$	c #CDD18B",
"D$	c #BECB87",
"E$	c #B8CC87",
"F$	c #B8CF8A",
"G$	c #C1DA99",
"H$	c #CDE6A6",
"I$	c #D6E9A9",
"J$	c #D6E19E",
"K$	c #D6DB96",
"L$	c #DEDA96",
"M$	c #E7DB98",
"N$	c #F1DBA0",
"O$	c #EDA9A8",
"P$	c #F6B0AB",
"Q$	c #FDBDAA",
"R$	c #FCC5A7",
"S$	c #F7CBA0",
"T$	c #F0D099",
"U$	c #EAD495",
"V$	c #E9D996",
"W$	c #EADC96",
"X$	c #F0E49E",
"Y$	c #F9EBA9",
"Z$	c #FDEBAA",
"`$	c #F9E1A3",
" %	c #F9DBA5",
".%	c #F8D6A6",
"+%	c #FBCCA4",
"@%	c #E9A8A7",
"#%	c #EFAAA7",
"$%	c #F9BAA4",
"%%	c #F7C0A2",
"&%	c #F8C6A3",
"*%	c #FACAA4",
"=%	c #FCCBA7",
"-%	c #FBC6A6",
";%	c #FBC2A6",
">%	c #FBBEA7",
",%	c #FAB9A7",
"'%	c #F6B2A7",
")%	c #F1ADA7",
"!%	c #E7A7A8",
"~%	c #EFA8A7",
"{%	c #F4ACA6",
"]%	c #F6B0A7",
"^%	c #F5AFA7",
"/%	c #F4ADA7",
"(%	c #F2ABA6",
"_%	c #F0A8A7",
":%	c #E9A7A6",
"<%	c #E9A6A8",
"[%	c #E9A7A8",
"}%	c #E7A5A7",
"  . + @ # $ % & * = - ; > , ' ) ! ~ {                           ",
"    ] ^ / ( _ : < [ } | 1 2 3 4 5 6 7 8                         ",
"    9 0 a b c d e f g h i j k l m n o p                         ",
"    q r s t u v w x y z A B C D E F G H                         ",
"      I J K L M N O P Q R S T U V W X Y Z                       ",
"      `  ...+.@.#.$.%.&.*.=.-.;.>.,.'.).!.                      ",
"        ~.{.].^./.(._.:.<.[.}.|.1.2.3.4.5.6.                    ",
"        7.8.9.0.a.b.c.d.e.f.g.h.i.j.k.l.m.n.                    ",
"        o.p.q.r.s.t.u.v.w.x.y.z.A.B.C.D.E.F.                    ",
"          G.H.I.J.K.L.M.N.O.P.Q.R.S.T.U.V.W.X.                  ",
"          X.Y.Z.`. +.+++@+#+$+%+&+*+=+-+;+>+,+                '+",
"            )+!+~+{+]+^+/+(+_+:+<+[+}+|+1+2+3+4+    5+6+7+8+9+0+",
"            a+b+c+d+e+f+g+h+i+j+k+l+m+n+o+p+q+r+s+t+u+v+w+x+y+z+",
"              A+B+C+D+E+F+G+H+I+J+K+L+M+N+O+P+Q+R+S+T+U+V+W+X+Y+",
"              Z+`+ @.@+@@@#@$@%@&@*@=@-@;@>@,@'@)@!@~@{@]@^@/@(@",
"              _@:@<@[@}@|@1@2@3@4@5@6@7@8@9@0@a@b@c@d@e@f@g@h@i@",
"                j@k@l@m@n@o@p@q@r@s@t@u@v@w@x@y@z@A@B@C@D@E@F@G@",
"                H@I@J@K@L@M@N@O@P@Q@R@S@T@U@V@W@X@Y@Z@`@ #.#+#@#",
"                ##$#%#&#*#=#-#;#>#,#'#)#!#~#{#]#^#/#(#_#:#<#[#}#",
"                  9 |#1#2#3#4#5#6#7#8#9#0#a#b#c#d#e#f#g#h#i#j#k#",
"                    l#m#n#o#p#q#r#s#t#u#v#w#x#y#z#A#B#C#D#E#F#G#",
"                    H#I#J#K#L#M#N#O#P#Q#R#S#T#U#V#W#X#Y#Z#`# $.$",
"                      +$@$#$$$%$&$*$=$-$;$>$,$'$)$!$~${$]$^$/$($",
"                        _$:$<$[$}$|$1$2$3$4$5$6$7$8$9$0$a$b$c$d$",
"                          e$f$g$h$i$j$k$l$m$n$o$p$q$r$s$t$u$v$w$",
"                            x$y$z$A$B$5 C$D$E$F$G$H$I$J$K$L$M$N$",
"                              O$P$Q$R$S$T$U$V$W$X$Y$Z$`$ %.%+%`+",
"                                @%#%~.w+$%%%&%*%=%k@-%;%>%,%'%)%",
"                                    !%7+~%{%p.]%^%/%(%{ _%8+:%  ",
"                                              <%[%}%            ",
"                                                                ",
"                                                                "};
